<svg width="20" height="20" viewBox="0 0 20 20" fill="none" xmlns="http://www.w3.org/2000/svg">
<path d="M3.3625 12.899C3.34328 13.0429 3.33353 13.188 3.33333 13.3332C3.33333 15.3148 5.115 16.9032 7.10083 16.6365C7.67833 17.6648 8.77834 18.3332 10 18.3332C11.2217 18.3332 12.3217 17.6648 12.8992 16.6365C14.8808 16.9032 16.6667 15.3148 16.6667 13.3332C16.6667 13.189 16.6567 13.044 16.6375 12.899C17.665 12.3215 18.3333 11.2207 18.3333 9.99984C18.3333 8.779 17.665 7.67817 16.6375 7.10067C16.6567 6.95567 16.6667 6.81067 16.6667 6.6665C16.6667 4.68484 14.8808 3.09317 12.8992 3.36317C12.3217 2.33484 11.2217 1.6665 10 1.6665C8.77834 1.6665 7.67833 2.33484 7.10083 3.36317C5.115 3.09317 3.33333 4.68484 3.33333 6.6665C3.33333 6.81067 3.34333 6.95567 3.3625 7.10067C2.335 7.67817 1.66667 8.779 1.66667 9.99984C1.66667 11.2207 2.335 12.3215 3.3625 12.899ZM4.56417 8.3965L5.4825 8.15234L5.12083 7.27484C5.04151 7.08181 5.00047 6.8752 5 6.6665C5 5.74734 5.7475 4.99984 6.66667 4.99984C6.8725 4.99984 7.0825 5.0415 7.275 5.12067L8.15334 5.48234L8.3975 4.564C8.49155 4.21081 8.69964 3.89857 8.98944 3.67584C9.27924 3.45311 9.6345 3.33236 10 3.33236C10.3655 3.33236 10.7208 3.45311 11.0106 3.67584C11.3004 3.89857 11.5085 4.21081 11.6025 4.564L11.8467 5.48234L12.725 5.12067C12.9175 5.0415 13.1275 4.99984 13.3333 4.99984C14.2525 4.99984 15 5.74734 15 6.6665C15 6.87234 14.9583 7.08317 14.8792 7.27484L14.5175 8.15234L15.4358 8.3965C15.7882 8.49172 16.0994 8.70036 16.3213 8.99017C16.5432 9.27999 16.6634 9.63483 16.6634 9.99984C16.6634 10.3648 16.5432 10.7197 16.3213 11.0095C16.0994 11.2993 15.7882 11.508 15.4358 11.6032L14.5175 11.8473L14.8792 12.7248C14.9583 12.9165 15 13.1273 15 13.3332C15 14.2523 14.2525 14.9998 13.3333 14.9998C13.1275 14.9998 12.9175 14.9582 12.725 14.879L11.8467 14.5173L11.6025 15.4357C11.5085 15.7889 11.3004 16.1011 11.0106 16.3238C10.7208 16.5466 10.3655 16.6673 10 16.6673C9.6345 16.6673 9.27924 16.5466 8.98944 16.3238C8.69964 16.1011 8.49155 15.7889 8.3975 15.4357L8.15334 14.5173L7.275 14.879C7.08195 14.9583 6.87535 14.9993 6.66667 14.9998C5.7475 14.9998 5 14.2523 5 13.3332C5 13.1273 5.04167 12.9165 5.12083 12.7248L5.4825 11.8473L4.56417 11.6032C4.2118 11.508 3.90061 11.2993 3.67871 11.0095C3.45681 10.7197 3.33657 10.3648 3.33657 9.99984C3.33657 9.63483 3.45681 9.27999 3.67871 8.99017C3.90061 8.70036 4.2118 8.49172 4.56417 8.3965Z" fill="#159C5B"/>
<path d="M13.1183 8.92503L11.945 7.7417L9.16917 10.4909L8.08917 9.41087L6.91084 10.5892L9.16417 12.8425L13.1183 8.92503Z" fill="#159C5B"/>
</svg>
