<svg width="20" height="21" viewBox="0 0 20 21" fill="none" xmlns="http://www.w3.org/2000/svg">
<path d="M7.64333 14.0348L10 11.6782L12.3567 14.0348L13.535 12.8565L11.1783 10.4998L13.535 8.14318L12.3567 6.96484L10 9.32151L7.64333 6.96484L6.465 8.14318L8.82166 10.4998L6.465 12.8565L7.64333 14.0348Z" fill="white"/>
<path d="M9.99999 18.8332C14.595 18.8332 18.3333 15.0948 18.3333 10.4998C18.3333 5.90484 14.595 2.1665 9.99999 2.1665C5.40499 2.1665 1.66666 5.90484 1.66666 10.4998C1.66666 15.0948 5.40499 18.8332 9.99999 18.8332ZM9.99999 3.83317C13.6758 3.83317 16.6667 6.824 16.6667 10.4998C16.6667 14.1757 13.6758 17.1665 9.99999 17.1665C6.32416 17.1665 3.33332 14.1757 3.33332 10.4998C3.33332 6.824 6.32416 3.83317 9.99999 3.83317Z" fill="white"/>
</svg>
