<svg width="51" height="51" viewBox="0 0 51 51" fill="none" xmlns="http://www.w3.org/2000/svg">
<path d="M29.6973 2.43359C27.832 4.1914 25.7715 5.4707 23.6719 6.17382C22.4023 6.59375 21.4746 6.75976 20.0098 6.80859C18.8672 6.83789 18.7207 6.86718 18.5742 7.05273C18.4082 7.24804 18.3984 7.64843 18.3984 12.4629C18.3984 17.2285 18.418 17.7656 18.5938 18.8105C19.3555 23.2832 22.0801 27.248 26.3086 30.0312C27.998 31.1445 30.293 32.2773 30.8398 32.2578C31.2402 32.248 34.082 30.8125 35.2441 30.0312C38.9941 27.5215 41.4551 24.3086 42.5586 20.5C43.0859 18.6934 43.1055 18.3516 43.1055 12.5508C43.1055 7.41406 43.0957 7.16015 42.9199 7.0039C42.7734 6.86718 42.4902 6.82812 41.4844 6.79882C38.0273 6.70117 34.9121 5.29492 31.7969 2.41406C31.2402 1.89648 30.918 1.67187 30.752 1.67187C30.5762 1.67187 30.2637 1.89648 29.6973 2.43359ZM32.8223 5.1582C35.3711 7.04296 38.5547 8.21484 41.1328 8.21484H41.748L41.709 13.2637C41.6797 17.6094 41.6504 18.4297 41.5039 19.0547C40.4199 23.7715 37.2754 27.5508 32.4121 30.0019C30.6445 30.9004 30.8887 30.8711 29.6094 30.2559C24.6094 27.8144 21.4258 24.2402 20.1758 19.6504L19.9219 18.7129L19.8828 13.459L19.8535 8.21484H20.4688C21.8457 8.21484 23.8965 7.72656 25.5176 7.02343C27.1094 6.33007 28.9746 5.10937 30.2148 3.95703L30.752 3.44921L31.3867 4.01562C31.7383 4.31836 32.3828 4.83593 32.8223 5.1582Z" fill="#FE4A23"/>
<path d="M30.1074 6.10547C27.8711 7.80469 25.1855 9.06446 22.6465 9.58203C22.002 9.70899 21.7285 9.81641 21.6016 9.97266C21.4355 10.168 21.4258 10.4902 21.4258 13.8691C21.4258 16.8184 21.4551 17.7363 21.582 18.4688C22.0703 21.291 23.6133 23.9473 25.9766 26.0078C27.5 27.3457 30.127 28.918 30.8301 28.918C31.0352 28.918 31.5137 28.7129 32.2168 28.3223C36.1816 26.1152 38.6719 23.1855 39.7559 19.4453L40.0195 18.5176L40.0488 14.3184C40.0781 10.9004 40.0684 10.0898 39.9609 9.94336C39.8633 9.81641 39.5215 9.69922 38.8574 9.57227C36.3672 9.07422 34.3164 8.11719 31.3965 6.07617C30.8496 5.69531 30.6348 5.69531 30.1074 6.10547ZM31.8262 8.12696C33.75 9.40625 35.6055 10.2559 37.5879 10.7539L38.6621 11.0176V14.4258C38.6621 17.4141 38.6426 17.9316 38.4766 18.6152C37.6855 22.0234 35.2637 24.9727 31.6113 27.0137L30.8105 27.4629L30.2148 27.1602C27.0703 25.5684 24.4043 22.6875 23.4082 19.7871C22.9297 18.3809 22.8906 18 22.8906 14.377V10.9883L23.5059 10.8613C25.293 10.5 27.9004 9.35742 29.7266 8.12696C30.293 7.75586 30.7715 7.45313 30.8008 7.46289C30.8301 7.47266 31.2891 7.77539 31.8262 8.12696Z" fill="#FE4A23"/>
<path d="M30.3809 10.5683C30.2832 10.6269 29.8828 11.3202 29.4824 12.121C28.8477 13.3808 28.7207 13.5761 28.4863 13.6249C28.3398 13.6542 27.5977 13.7714 26.8457 13.8788C25.3418 14.0937 25.1367 14.2011 25.1367 14.7968C25.1367 15.0605 25.293 15.2558 26.3281 16.2519L27.5195 17.414L27.2559 19.0155C26.9727 20.7538 26.9922 21.037 27.4219 21.203C27.7539 21.3202 28.0078 21.2323 29.4824 20.4511L30.752 19.7675L32.2656 20.5488C33.623 21.2421 33.8086 21.3105 34.0527 21.2128C34.5508 21.0175 34.5703 20.7831 34.2773 19.0351L34.0137 17.453L35.1953 16.2714C36.2598 15.207 36.3672 15.0605 36.3672 14.748C36.3672 14.2011 36.1719 14.1034 34.707 13.8886C33.9844 13.7714 33.2422 13.664 33.0664 13.6347C32.7734 13.5761 32.7051 13.4882 32.0215 12.121C31.6211 11.3202 31.2109 10.6171 31.1035 10.5585C30.8594 10.4316 30.6055 10.4413 30.3809 10.5683ZM31.9434 14.8945C32.041 14.9238 32.5586 15.0214 33.0957 15.0995C33.6328 15.1874 34.082 15.2753 34.0918 15.2851C34.1113 15.3046 33.7695 15.6464 33.3398 16.0468C32.4512 16.8964 32.4414 16.9159 32.7051 18.3124C32.7832 18.7421 32.832 19.1034 32.8125 19.123C32.793 19.1425 32.373 18.9667 31.8848 18.7226C31.3965 18.4784 30.8789 18.2734 30.7422 18.2734C30.5957 18.2734 30.0586 18.498 29.5508 18.7714C28.8379 19.1523 28.6426 19.2304 28.6914 19.0839C28.8281 18.6054 29.0332 17.1015 28.9844 16.9452C28.9453 16.8378 28.584 16.4179 28.1836 16.0077L27.4512 15.2558L27.7832 15.207C27.9688 15.1777 28.4277 15.0995 28.7988 15.0409C29.1797 14.9921 29.5703 14.8847 29.6777 14.8163C29.7852 14.748 30.0684 14.2695 30.3125 13.7616L30.752 12.8339L31.2598 13.8398C31.5527 14.4062 31.8457 14.8652 31.9434 14.8945Z" fill="#FE4A23"/>
<path d="M2.26563 29.1133C2.07032 29.2207 1.80664 29.4649 1.67969 29.67L1.45508 30.041L1.42579 38.3223C1.40625 43.8106 1.43555 46.7305 1.50391 46.9844C1.63086 47.4434 2.13868 47.9121 2.68555 48.0586C2.93946 48.127 3.85743 48.1563 5.20508 48.1367C7.28516 48.1074 7.33399 48.0977 7.68555 47.8633C8.1543 47.5508 8.4375 46.9649 8.4375 46.3203V45.8125H9.13086C10.791 45.8125 13.3789 46.3692 15.9961 47.2969C19.6777 48.5957 21.3672 49.0059 23.8672 49.2403C25.3906 49.377 27.7148 49.3086 29.1895 49.084C32.2852 48.6055 37.1973 47.1602 40.8594 45.6465C43.4277 44.5821 46.8848 42.8145 48.1543 41.916C49.7852 40.7637 50.2734 38.7227 49.3555 36.916C49.043 36.3106 48.3496 35.6758 47.6172 35.334C47.0215 35.0508 46.875 35.0215 46.0352 35.0215H45.1074L40.0195 36.8477C37.2168 37.8633 34.9023 38.6836 34.8731 38.6836C34.8438 38.6836 34.8438 38.3614 34.8731 37.961C34.9805 36.5938 34.3652 35.334 33.2422 34.5625C32.3438 33.9473 31.9727 33.8985 28.2617 33.8985C24.7363 33.8985 24.4043 33.8594 23.3008 33.3614C23.0078 33.2246 22.3926 32.8438 21.9336 32.502C20.3809 31.3692 19.1895 30.7735 17.5684 30.3145C16.3672 29.9825 14.0723 29.8946 12.7832 30.1289C11.6895 30.334 10.1367 30.8516 9.22852 31.3008C8.84766 31.4961 8.51563 31.6524 8.48633 31.6524C8.45704 31.6524 8.4375 31.3301 8.4375 30.9395C8.4375 30.0899 8.2129 29.5332 7.74415 29.2012C7.42188 28.9668 7.37305 28.9668 5.01954 28.9473C2.80274 28.9278 2.59766 28.9375 2.26563 29.1133ZM6.92383 38.4883V46.6426H4.92188H2.91993L2.89063 38.586C2.88086 34.1524 2.89063 30.4707 2.91993 30.4024C2.94922 30.3047 3.41797 30.2852 4.94141 30.3047L6.92383 30.334V38.4883ZM16.0156 31.4668C17.6953 31.7012 19.2871 32.375 20.9375 33.5762C21.5039 33.9766 22.2754 34.4551 22.6465 34.6309C23.9844 35.2657 24.2383 35.2949 28.2129 35.3633C30.5957 35.4024 31.9141 35.461 32.0801 35.5293C33.6133 36.1934 33.9063 38.4199 32.5879 39.4258C31.9141 39.9434 31.8164 39.9532 28.5742 39.9532C26.7188 39.9532 25.4395 39.9922 25.2637 40.0508C24.9902 40.1485 24.7461 40.4903 24.7461 40.7735C24.7461 40.8418 24.8438 41.0176 24.9512 41.1641L25.1563 41.4278L28.5938 41.3985L32.0215 41.3692L32.6074 41.1055C32.9297 40.959 35.957 39.8457 39.3457 38.6348C46.0254 36.252 46.1035 36.2227 46.9629 36.6231C48.5254 37.3262 48.8477 39.3379 47.5879 40.5C46.8262 41.1934 42.5098 43.4102 39.7363 44.5235C35.9766 46.0371 31.3672 47.3457 28.5254 47.7168C27.0508 47.9024 24.5898 47.9024 23.1152 47.7168C20.9863 47.4336 20.0098 47.1699 16.6113 45.9688C13.9063 45.0117 11.6895 44.5137 9.51172 44.3867L8.4375 44.3184V38.8203V33.3125L9.73633 32.6778C12.0508 31.545 13.9551 31.1739 16.0156 31.4668Z" fill="#1B2559"/>
</svg>
