<svg width="51" height="51" viewBox="0 0 51 51" fill="none" xmlns="http://www.w3.org/2000/svg">
<g clip-path="url(#clip0_1058_1550)">
<path d="M25.8926 1.68164C25.1504 1.96485 24.3887 2.69727 24.0566 3.44922C23.3047 5.10938 24.0566 7.1211 25.6973 7.87305L26.2637 8.13672L26.2344 9.3086L26.2051 10.4902L25.2773 10.7441C22.6992 11.4668 20.2871 12.7168 18.1387 14.4453C17.3867 15.0508 15.4531 16.9941 15.1602 17.4336L15.0039 17.6875H11.293H7.58203L7.29883 17.9707C6.73242 18.5469 7.01562 19.5234 7.80664 19.6797C7.98242 19.709 9.33984 19.7383 10.8438 19.7383C12.3477 19.7383 13.5586 19.7676 13.5391 19.8066C13.5195 19.8555 13.2559 20.3731 12.9629 20.9688C12.6602 21.5645 12.3086 22.3457 12.1816 22.707L11.9473 23.3516H6.54688C1.91797 23.3516 1.10742 23.3711 0.863281 23.4981C0.501953 23.6836 0.375 23.918 0.375 24.4258C0.375 24.7481 0.433594 24.8945 0.658203 25.1191L0.941406 25.4023H6.14648H11.3418L11.2734 25.7637C11.1172 26.6719 10.9219 28.2246 10.9219 28.6445V29.1133H8.53906H6.16602L5.90234 29.3672C5.54102 29.7383 5.54102 30.4414 5.90234 30.8125L6.16602 31.0664H8.53906C9.84766 31.0664 10.9219 31.0957 10.9219 31.1445C10.9219 31.584 11.3125 34.0547 11.4688 34.6016C11.5176 34.7676 11.3125 34.7773 8.1875 34.7773H4.84766L4.56445 35.0606C4.18359 35.4414 4.16406 36.0957 4.51562 36.5059L4.75 36.7793L8.46094 36.8086L12.1621 36.8379L12.5723 37.7949C13.6562 40.334 15.6777 43.0293 17.8359 44.8457C24.2422 50.207 33.1875 51.0469 40.4336 46.9746C41.6152 46.3008 41.8789 46.0469 41.8789 45.5391C41.8789 45.0313 41.5176 44.5723 41.0488 44.4844C40.7559 44.4356 40.5605 44.5039 39.6621 45.0117C36.791 46.6231 34.3496 47.3262 31.2344 47.4434C29.4473 47.502 27.9629 47.3359 26.1855 46.8867C19.1738 45.0703 13.9785 39.1426 13.0703 31.9063C12.8848 30.4219 12.9922 27.6875 13.3047 26.2227C14.7793 19.25 20.1699 13.8496 27.084 12.4336C30.9316 11.6426 34.8281 12.1406 38.4121 13.8789C43.832 16.5059 47.5137 21.7207 48.2266 27.7656C48.3828 29.0742 48.3047 31.7793 48.0801 32.9219C47.6406 35.1582 46.8887 37.1309 45.7461 39.0352C45.3066 39.7676 45.2676 40.2949 45.6484 40.666C45.9805 40.9981 46.3613 41.0762 46.791 40.8906C47.0742 40.7734 47.25 40.5586 47.7285 39.7578C48.8125 37.9121 49.6719 35.5977 50.1113 33.3125C50.2969 32.3359 50.3262 31.8574 50.3262 29.6992C50.3262 27.3457 50.3066 27.1406 50.0527 25.9395C49.5254 23.4785 48.5391 21.0176 47.2988 19.1035C44.7207 15.0996 40.707 12.0918 36.2148 10.8027L35.0918 10.4805L35.0625 9.25977L35.0332 8.03907L35.3066 7.98047C35.6777 7.89258 36.5176 7.30664 36.7715 6.96485C37.2598 6.31055 37.4258 5.8418 37.4648 4.99219C37.4941 4.3086 37.4648 4.06446 37.2891 3.60547C37.0156 2.88282 36.3809 2.17969 35.6582 1.81836L35.0918 1.52539L30.7461 1.50586C26.5762 1.48633 26.3809 1.48633 25.8926 1.68164ZM34.8184 3.72266C35.4727 4.11329 35.6387 5.02149 35.1699 5.58789C34.6914 6.1543 34.623 6.16407 30.5996 6.16407C27.1133 6.16407 26.9082 6.1543 26.5469 5.96875C26.0977 5.74414 25.834 5.30469 25.834 4.77735C25.834 4.33789 26.0586 3.97657 26.4785 3.72266C26.7715 3.53711 26.9961 3.52735 30.6484 3.52735C34.3008 3.52735 34.5254 3.53711 34.8184 3.72266ZM32.9922 9.20118C32.9922 10.1777 32.9922 10.1777 32.7773 10.1094C32.4844 10.0117 28.8125 10.0117 28.5293 10.1094C28.3047 10.1777 28.3047 10.1777 28.3047 9.20118V8.21485H30.6484H32.9922V9.20118Z" fill="#1B2559"/>
<path d="M28.959 14.6602C26.5273 14.9629 24.3105 15.7637 22.3965 17.0039C15.9219 21.2324 13.627 29.5625 17.0254 36.4863C18.5684 39.6406 21.3516 42.3066 24.5059 43.6738C26.5078 44.543 28.4219 44.9336 30.6777 44.9336C34.125 44.9336 37.1719 43.8984 39.9258 41.8086C40.8926 41.0664 42.377 39.5137 43.0996 38.498C45.8535 34.5723 46.5762 29.5332 45.043 24.9336C43.9199 21.5254 41.4883 18.5371 38.3438 16.6621C36.8594 15.7832 35.0918 15.1289 33.2852 14.8066C32.2891 14.6211 29.877 14.543 28.959 14.6602ZM33.0703 16.8574C37.0645 17.6289 40.5898 20.3047 42.4258 23.9668C43.8906 26.8574 44.1641 30.4316 43.1875 33.6738C42.8555 34.7871 41.9082 36.623 41.1563 37.6191C36.3906 43.918 27.3379 44.6992 21.6543 39.2891C18.7051 36.4863 17.2109 32.6094 17.5625 28.6836C17.8555 25.4609 19.1543 22.7266 21.4688 20.4219C23.5488 18.3516 26.2441 17.0723 29.3789 16.6719C30.043 16.5938 32.2695 16.7012 33.0703 16.8574Z" fill="#1B2559"/>
<path d="M30.2188 18.4198C29.7402 18.6737 29.6816 18.8397 29.6719 19.7968C29.6719 20.6171 29.6914 20.705 29.916 20.9393C30.2188 21.2421 30.5898 21.3202 31.0391 21.1737C31.4883 21.0175 31.7227 20.5585 31.7227 19.8065C31.7227 19.035 31.5273 18.5956 31.0977 18.4198C30.668 18.2343 30.5703 18.2343 30.2188 18.4198Z" fill="#FE4A23"/>
<path d="M37.0449 21.9941C36.9375 22.0527 35.7559 23.1953 34.4082 24.5332L31.9668 26.9648L31.4883 26.8184C30.8828 26.6328 30.4141 26.6328 29.8086 26.8184L29.3301 26.9551L28.1582 25.8027C26.8789 24.5332 26.6348 24.4062 26.0293 24.6602C25.6094 24.8262 25.4727 25.0605 25.4727 25.6074C25.4727 26.0078 25.5215 26.0664 26.6543 27.2188L27.8359 28.4102L27.7188 28.7812C27.6504 28.9863 27.5918 29.4453 27.6016 29.8066C27.6016 30.9883 28.2168 31.9746 29.3008 32.5508C29.916 32.873 31.3809 32.873 31.9961 32.5508C32.9238 32.0527 33.4805 31.3105 33.6758 30.3047C33.7637 29.8359 33.6855 29.0156 33.5195 28.5957C33.4707 28.4492 33.9492 27.9121 35.9805 25.8809L38.5098 23.3516V22.9023C38.5098 22.5215 38.4609 22.4141 38.1875 22.1699C37.8555 21.8672 37.4062 21.7988 37.0449 21.9941ZM31.3516 29.0938C31.7617 29.5137 31.752 30.0703 31.3418 30.4902C30.4434 31.3789 29.0469 30.0605 29.8965 29.123C30.3359 28.6543 30.9023 28.6348 31.3516 29.0938Z" fill="#FE4A23"/>
<path d="M19.6914 28.8691C19.3398 29.0645 19.2227 29.2988 19.2227 29.7969C19.2227 30.1191 19.2812 30.2656 19.5059 30.4902C19.7793 30.7637 19.8379 30.7734 20.6289 30.7734C21.4199 30.7734 21.4883 30.7539 21.7812 30.4902C22.0547 30.2461 22.1035 30.1387 22.1035 29.7578C22.1035 29.4062 22.0449 29.2598 21.8301 29.0449C21.5859 28.8008 21.4883 28.7715 20.7559 28.7422C20.1797 28.7227 19.877 28.7617 19.6914 28.8691Z" fill="#FE4A23"/>
<path d="M39.7598 28.8691C39.4375 29.0059 39.1445 29.4453 39.1445 29.7969C39.1445 30.0801 39.4082 30.5488 39.623 30.6758C39.7305 30.7246 40.1992 30.7734 40.6582 30.7734C41.459 30.7734 41.5176 30.7637 41.791 30.4902C42.3574 29.9141 42.0742 28.9375 41.2832 28.7812C40.7852 28.6836 40.0918 28.7227 39.7598 28.8691Z" fill="#FE4A23"/>
<path d="M29.9453 38.5762C29.623 38.8594 29.623 38.8691 29.623 39.7578C29.623 40.6465 29.623 40.6562 29.9453 40.9395C30.3848 41.3398 30.9414 41.3398 31.3418 40.9395C31.6152 40.666 31.625 40.6172 31.625 39.7578C31.625 38.8984 31.6152 38.8496 31.3418 38.5762C30.9414 38.1758 30.3848 38.1758 29.9453 38.5762Z" fill="#FE4A23"/>
<path d="M0.902341 34.8653C0.374997 35.0899 0.18945 35.9884 0.570309 36.4669C0.941403 36.9356 1.83984 36.8966 2.18164 36.3985C2.40625 36.086 2.36718 35.422 2.10351 35.1192C1.86914 34.836 1.26367 34.7091 0.902341 34.8653Z" fill="#1B2559"/>
<path d="M43.2266 42.2872C42.9531 42.5313 42.9043 42.6387 42.9043 43.0294C42.9043 43.42 42.9531 43.5274 43.2266 43.7715C43.5879 44.0938 43.9785 44.1329 44.418 43.9083C44.7793 43.7227 44.9062 43.4883 44.9062 43.0294C44.9062 42.5704 44.7793 42.336 44.418 42.1505C43.9785 41.9258 43.5879 41.9649 43.2266 42.2872Z" fill="#1B2559"/>
</g>
<defs>
<clipPath id="clip0_1058_1550">
<rect width="50" height="50" fill="white" transform="translate(0.375 0.5)"/>
</clipPath>
</defs>
</svg>
