<svg width="51" height="51" viewBox="0 0 51 51" fill="none" xmlns="http://www.w3.org/2000/svg">
<path d="M25.3574 1.39844C25.2793 1.4668 24.7422 2.4043 24.1758 3.47852L23.1504 5.44141L20.9531 5.8125C18.6289 6.21289 18.4238 6.29102 18.2969 6.80859C18.2578 6.94531 18.2773 7.15039 18.3359 7.26758C18.3848 7.38477 19.1172 8.19531 19.957 9.06445L21.4805 10.6367L21.1875 12.6094C21.0312 13.7031 20.8945 14.7383 20.8945 14.9238C20.8945 15.3535 21.2559 15.7344 21.666 15.7344C21.832 15.7344 22.7695 15.334 23.9219 14.7578L25.8945 13.791L27.8379 14.7578C28.9414 15.3145 29.8984 15.7344 30.0645 15.7344C30.2109 15.7344 30.4551 15.6465 30.6016 15.5293C30.9336 15.2656 30.9336 15.041 30.5625 12.5703L30.2793 10.627L31.8418 9.01562C32.7012 8.12695 33.4238 7.29688 33.4531 7.16992C33.5312 6.88672 33.3555 6.4375 33.1016 6.29102C33.0039 6.22266 31.9492 6.00781 30.7578 5.80273L28.5996 5.43164L27.6035 3.52734C27.0566 2.48242 26.5293 1.54492 26.4414 1.45703C26.2363 1.25195 25.6016 1.22266 25.3574 1.39844ZM26.6758 5.37305C27.2812 6.53516 27.4863 6.83789 27.7012 6.92578C27.8574 6.98438 28.5508 7.12109 29.2441 7.23828C29.9473 7.35547 30.5918 7.47266 30.6895 7.49219C30.8262 7.53125 30.6309 7.79492 29.7324 8.74219C28.4238 10.1387 28.4824 9.93359 28.8047 12.0723C28.9121 12.7656 29 13.3711 29 13.4199C29 13.459 28.3457 13.1562 27.5352 12.7559C26.7344 12.3555 25.9824 12.0234 25.875 12.0234C25.7676 12.0234 25.0156 12.3555 24.2148 12.7559C23.4043 13.1562 22.75 13.459 22.75 13.4199C22.75 13.3711 22.8379 12.7754 22.9453 12.082C23.2773 9.95312 23.3262 10.1191 22.0078 8.73242C21.1289 7.80469 20.9238 7.53125 21.0605 7.50195C21.1582 7.47266 21.8125 7.35547 22.5059 7.23828C23.209 7.13086 23.9121 6.97461 24.0684 6.90625C24.3027 6.79883 24.498 6.50586 25.0937 5.34375C25.4941 4.5625 25.8457 3.91797 25.875 3.91797C25.9043 3.91797 26.2656 4.57227 26.6758 5.37305Z" fill="#FE4A23"/>
<path d="M9.96681 5.02141C9.82033 5.09954 9.4883 5.61712 9.01955 6.50579C8.62892 7.25774 8.22853 7.89251 8.13087 7.93157C8.03322 7.96087 7.35939 8.08782 6.63673 8.21477C5.23048 8.43938 4.92775 8.56633 4.78126 8.95696C4.60548 9.40618 4.79103 9.70891 5.89455 10.832L6.96876 11.9257L6.75392 13.4882C6.55861 14.8945 6.54884 15.08 6.6758 15.3339C6.97853 15.9198 7.33009 15.8808 9.01955 15.0702L10.416 14.3964L11.7246 15.0605C13.1309 15.7734 13.4922 15.8515 13.9024 15.5292C14.2149 15.2851 14.2246 15.0116 13.961 13.2441L13.7754 11.9745L13.9902 11.7304C14.1074 11.5937 14.6055 11.0663 15.1035 10.5488C15.9043 9.72844 16.0117 9.56243 16.0117 9.26946C16.0117 8.61516 15.8262 8.50774 14.1465 8.21477C13.3067 8.06829 12.5742 7.9218 12.5156 7.88274C12.457 7.85344 12.125 7.25774 11.7637 6.57415C10.9238 4.95305 10.6113 4.67962 9.96681 5.02141ZM10.875 8.50774C11.0606 8.8593 11.2852 9.21087 11.3828 9.29876C11.4902 9.38665 11.9981 9.5429 12.5254 9.63079L13.4922 9.80657L12.8477 10.4511C12.4961 10.8027 12.1738 11.2031 12.125 11.3398C12.0664 11.496 12.0762 11.8866 12.1641 12.4628C12.2324 12.9413 12.3008 13.371 12.3008 13.4198C12.3008 13.4589 11.9102 13.2929 11.4219 13.0488C10.9434 12.8046 10.4649 12.6093 10.3672 12.6093C10.2695 12.6093 9.82033 12.7851 9.38087 12.9999C8.93165 13.2148 8.54103 13.371 8.51173 13.3515C8.4922 13.3222 8.5215 12.9706 8.58009 12.5605C8.74611 11.4081 8.75587 11.4179 8.01369 10.5878C7.64259 10.1679 7.34962 9.81633 7.35939 9.7968C7.37892 9.78704 7.77931 9.70891 8.25783 9.62102C8.72658 9.5429 9.19533 9.42571 9.29298 9.37688C9.39064 9.32805 9.60548 9.00579 9.7715 8.67376C9.94728 8.34172 10.1524 7.97063 10.2305 7.84368C10.4063 7.58001 10.3965 7.58001 10.875 8.50774Z" fill="#FE4A23"/>
<path d="M40.8848 5.09967C40.748 5.22663 40.3379 5.89069 39.9863 6.57428C39.625 7.26764 39.2832 7.85358 39.2246 7.89264C39.166 7.92194 38.4336 8.07819 37.6035 8.22467C35.9238 8.51764 35.7383 8.6153 35.7383 9.26959C35.7383 9.56256 35.8457 9.72858 36.6465 10.5489C37.1445 11.0665 37.6426 11.5938 37.7598 11.7305L37.9746 11.9747L37.7891 13.2442C37.5352 14.9532 37.5352 15.1973 37.8379 15.4903C38.209 15.8712 38.5312 15.8028 40.0156 15.0704L41.3535 14.3965L42.7207 15.0606C44.4102 15.8712 44.7715 15.92 45.0742 15.3243C45.2109 15.0606 45.2012 14.8946 44.9961 13.4786L44.7715 11.9258L45.8164 10.8712C47.1738 9.50397 47.291 9.25983 46.8418 8.74225C46.6367 8.50787 46.4512 8.44928 45.0645 8.20514C44.2148 8.04889 43.502 7.91217 43.4824 7.89264C43.4629 7.86334 43.1406 7.25787 42.7598 6.54498C42.3789 5.82233 42.0176 5.1778 41.9492 5.10944C41.8809 5.04108 41.6758 4.96295 41.4902 4.93366C41.2168 4.88483 41.0898 4.92389 40.8848 5.09967ZM41.8906 8.50787C42.1055 8.93756 42.3594 9.31842 42.4473 9.37701C42.5449 9.42584 43.0332 9.54303 43.5312 9.63092L44.4395 9.79694L44.2148 10.0606C44.0879 10.1973 43.7852 10.5391 43.5312 10.8223C43.0137 11.379 43.0039 11.4278 43.1699 12.5606C43.2285 12.9708 43.2578 13.3223 43.2383 13.3516C43.209 13.3712 42.8184 13.2149 42.3691 13.0001C41.9297 12.7852 41.4805 12.6094 41.3828 12.6094C41.2852 12.6094 40.8066 12.8047 40.3281 13.0489C39.8398 13.293 39.4492 13.459 39.4492 13.42C39.459 13.3712 39.5176 12.9415 39.5859 12.4532C39.6543 11.9063 39.6738 11.4766 39.625 11.3301C39.5762 11.2032 39.2441 10.8028 38.8828 10.4317C38.5312 10.0704 38.2773 9.77741 38.3262 9.77741C38.7461 9.77741 40.2207 9.43561 40.3574 9.30866C40.4551 9.22076 40.709 8.81061 40.9336 8.39069C41.1484 7.97076 41.3633 7.65827 41.4121 7.68756C41.4609 7.71686 41.6758 8.08795 41.8906 8.50787Z" fill="#FE4A23"/>
<path d="M24.2148 18.127C23.4141 18.3027 21.9883 19.0059 21.2656 19.582C20.1523 20.4707 19.2148 21.9551 18.834 23.4199C18.707 23.9375 18.6484 24.4941 18.6484 25.2461C18.6484 27.873 19.459 30.373 20.8848 32.1699L21.4707 32.9023L20.543 32.9707L19.625 33.0391L18.9512 32.6875C18.248 32.3164 17.3398 32.043 16.8223 32.043C16.4023 32.043 16.3438 31.9062 16.627 31.5352C17.6621 30.1582 18.248 27.3262 17.8379 25.7246C17.3301 23.7422 15.7773 22.2578 13.8145 21.8379C13.4434 21.7598 12.9551 21.6914 12.7402 21.6914C11.4414 21.6914 10.0156 22.2969 9.07812 23.2441C7.90625 24.4258 7.45703 25.666 7.54492 27.4531C7.63281 29.0254 8.27734 30.9395 8.99023 31.7109C9.22461 31.9551 9.14648 32.043 8.6875 32.043C8.17969 32.043 7.31055 32.2871 6.63672 32.6289C5.85547 33.0195 4.79102 34.0449 4.41016 34.748C3.82422 35.8711 3.80469 36.0273 3.80469 39.9629C3.80469 43.3418 3.81445 43.5566 3.99023 43.7715L4.17578 44.0059L8.67773 44.0352L13.1797 44.0645V46.6816C13.1797 49.2891 13.1797 49.2988 13.4043 49.5039L13.6289 49.7188H25.9043H38.1699L38.375 49.5039C38.5605 49.2988 38.5703 49.1719 38.5703 46.6719V44.0645L43.0723 44.0352L47.5742 44.0059L47.7598 43.7715C47.9355 43.5566 47.9453 43.3418 47.9453 39.9629C47.9453 36.0273 47.9258 35.8711 47.3398 34.748C46.959 34.0449 45.8945 33.0195 45.1133 32.6289C44.4395 32.2871 43.5703 32.043 43.043 32.043C42.7891 32.043 42.6719 32.0039 42.6719 31.9062C42.6719 31.8281 42.7109 31.7305 42.7695 31.7012C42.9453 31.5938 43.5508 30.4121 43.7852 29.7188C44.2344 28.4004 44.3516 26.8477 44.0879 25.7148C43.6289 23.7812 42.0566 22.2578 40.084 21.8379C39.2246 21.6621 38.7949 21.6621 37.9355 21.8379C35.9824 22.248 34.4395 23.7324 33.9316 25.6562C33.4922 27.3359 34.0586 30.1094 35.123 31.5352C35.4062 31.9062 35.3477 32.043 34.9277 32.043C34.4102 32.043 33.502 32.3164 32.7988 32.6875L32.125 33.0391L31.1875 32.9707C30.3379 32.9121 30.2695 32.8926 30.3965 32.7461C31.793 31.1152 32.584 29.4355 32.9551 27.2871C33.1699 26.0664 33.1504 24.3379 32.9062 23.4004C32.2812 20.959 30.4746 19.0645 28.0234 18.2637C27.1836 17.9902 25.1523 17.9219 24.2148 18.127ZM26.9688 19.748C27.252 19.8066 27.8574 20.0312 28.3164 20.2461C30.0938 21.0957 31.4414 23.0977 31.4414 24.8848V25.3047L31.0312 25.2461C28.9805 24.9531 27.3105 24.2793 25.6113 23.0488C24.4883 22.2285 24.5273 22.2285 22.2617 23.5957C21.2363 24.2109 20.377 24.7188 20.3477 24.7188C20.25 24.7188 20.416 23.918 20.6309 23.3516C21.1289 22.0137 22.1348 20.8809 23.3848 20.2656C24.5859 19.6699 25.7773 19.5039 26.9688 19.748ZM14.3223 23.791C15.1133 24.1816 15.582 24.6602 15.9922 25.5C16.2363 25.9883 16.2559 26.1348 16.2461 27.1602C16.2461 28.1465 16.207 28.3809 15.9531 29.1133C15.4551 30.5391 14.8203 31.3105 13.7949 31.7695C13.209 32.0234 12.0664 31.9844 11.4707 31.6816C9.88867 30.8711 8.77539 27.8926 9.33203 25.9785C9.50781 25.3633 10.0449 24.5332 10.4746 24.2012C11.6953 23.2734 12.9941 23.1367 14.3223 23.791ZM40.4844 23.7324C41.2363 24.084 41.8906 24.7285 42.2324 25.4707C43.1211 27.3457 42.0469 30.7734 40.2793 31.6816C39.6836 31.9844 38.541 32.0234 37.9551 31.7695C36.9297 31.3105 36.2949 30.5391 35.7969 29.1133C35.543 28.3809 35.5039 28.1465 35.5039 27.1602C35.4941 26.1055 35.5137 25.998 35.7773 25.4512C36.6758 23.6445 38.6973 22.9023 40.4844 23.7324ZM25.123 24.7676C26.832 25.9199 28.5605 26.5547 30.9336 26.916C31.1582 26.9551 31.3438 26.9844 31.3438 26.9941C31.3438 27.0039 31.2363 27.4141 31.0996 27.9121C30.2598 31.0762 28.3359 32.9219 25.8945 32.9219C23.834 32.9219 22.2031 31.7109 21.1777 29.4258C20.8555 28.7129 20.377 27.043 20.4258 26.8086C20.4551 26.6719 24.1465 24.3477 24.3613 24.3379C24.4199 24.3281 24.7617 24.5234 25.123 24.7676ZM17.0664 33.7324C17.1543 33.791 17.0273 33.918 16.6367 34.1523C15.3867 34.9043 14.4004 35.998 13.8145 37.2676C13.2969 38.3809 13.1797 39.0352 13.1797 40.8125V42.3945H9.32227H5.45508L5.48438 39.3379C5.51367 36.3301 5.51367 36.2812 5.75781 35.8027C6.25586 34.7773 7.4375 33.918 8.60938 33.7129C9.25391 33.6055 16.8906 33.625 17.0664 33.7324ZM43.1211 33.7129C44.3516 33.9375 45.4844 34.7676 45.9922 35.8027C46.2363 36.2812 46.2363 36.3301 46.2656 39.3379L46.2949 42.3945H42.4277H38.5703V40.8125C38.5703 39.0352 38.4531 38.3809 37.9355 37.2676C37.3496 35.9883 36.3633 34.9043 35.1035 34.1523C34.2637 33.6348 34.2734 33.6348 38.9219 33.6152C41.1777 33.6152 42.7598 33.6445 43.1211 33.7129ZM32.4668 34.8066C34.5078 35.3926 36.0508 36.8086 36.6855 38.6738C36.9004 39.2988 36.9004 39.4258 36.9102 43.7324V48.1562H35.0059H33.1016V45.6074V43.0586L32.8086 42.7656C32.5449 42.5117 32.457 42.4727 32.1445 42.5215C31.4512 42.6387 31.4414 42.6777 31.4414 45.5781V48.1562H25.875H20.3086V45.5781C20.3086 42.6777 20.2988 42.6387 19.6055 42.5215C19.293 42.4727 19.2051 42.5117 18.9414 42.7656L18.6484 43.0586V45.6074V48.1562H16.7441H14.8398V43.7324C14.8496 39.4258 14.8496 39.2988 15.0645 38.6738C15.7871 36.5449 17.6426 35.041 19.9668 34.6895C20.2891 34.6406 23.1016 34.6113 26.2168 34.6211C31.2363 34.6406 31.9492 34.6602 32.4668 34.8066Z" fill="#1B2559"/>
</svg>
