<svg width="51" height="50" viewBox="0 0 51 50" fill="none" xmlns="http://www.w3.org/2000/svg">
<path d="M3.35896 0.183117C2.2747 0.593235 1.36626 1.45448 0.789943 2.60282C0.0768682 4.01773 0.125709 2.84889 0.125709 20.0226C0.125709 37.1963 0.0768682 36.0275 0.789943 37.4424C1.37603 38.6113 2.29424 39.4622 3.42734 39.8724C3.91575 40.0467 4.28694 40.0672 7.46158 40.0672H10.9586L11.2126 39.8314C11.4079 39.6673 11.4861 39.4725 11.5251 39.1342C11.574 38.7138 11.5447 38.6215 11.2809 38.3139L10.9879 37.9653L7.52996 37.914C4.15018 37.8628 4.07204 37.8628 3.72039 37.627C3.22221 37.3091 2.78264 36.7452 2.47983 36.0685L2.22586 35.5046L2.19656 25.631L2.17702 15.7676H23.3739H44.5708V20.9454V26.1231H44.1312C43.6037 26.1231 43.1739 26.2974 42.7441 26.6768L42.4315 26.9536L41.5719 26.5948L40.7123 26.2359L40.6537 25.7335C40.5658 25.0466 40.3216 24.5442 39.8625 24.1341C39.3057 23.6317 38.8466 23.5291 37.2837 23.5804C36.0041 23.6112 35.8966 23.6317 35.4571 23.8982C34.8515 24.2776 34.4119 25.0466 34.4119 25.7438C34.4119 26.1744 34.3826 26.2462 34.1481 26.3487C33.9919 26.4102 33.6011 26.5845 33.269 26.7486C32.6829 27.0254 32.6634 27.0254 32.4973 26.8306C31.9699 26.2154 30.7098 25.9488 29.9381 26.2769C29.5083 26.4717 27.8282 28.1737 27.5742 28.6864C27.1639 29.5374 27.2616 30.5217 27.8379 31.3214L28.17 31.7828L27.8282 32.6133L27.4863 33.454L27.0076 33.5155C26.3629 33.6078 25.8843 33.8539 25.4838 34.3255C25.0345 34.8484 24.9368 35.2688 24.9368 36.7042V37.914H22.0063C18.7633 37.914 18.6363 37.9346 18.3335 38.5395C18.1479 38.9188 18.2163 39.4212 18.48 39.7801L18.6656 40.0159L23.0808 40.0672L27.4863 40.1184L27.8282 41.0104L28.1798 41.9127L27.9063 42.2408C27.5156 42.7329 27.3788 43.1636 27.3788 43.8608C27.3788 44.722 27.5742 45.0604 28.7659 46.2805C29.6939 47.234 29.8209 47.3365 30.319 47.4493C31.0419 47.6134 31.7061 47.4596 32.3117 46.9777C32.7415 46.6291 32.7513 46.6188 33.0639 46.7931C33.2397 46.8854 33.6011 47.0392 33.8649 47.1417L34.363 47.316L34.4217 47.8902C34.4998 48.6182 34.8808 49.3154 35.4082 49.6845C35.799 49.951 35.8673 49.9613 37.3716 49.992C39.1787 50.0331 39.5695 49.9305 40.0872 49.3256C40.4877 48.8437 40.6635 48.3823 40.6635 47.8389V47.398L41.5524 46.9982L42.4413 46.6086L42.6953 46.8649C43.1739 47.3263 43.5939 47.4903 44.2875 47.4903C44.7954 47.4903 45.0103 47.4391 45.362 47.2237C45.8699 46.9059 47.3058 45.3885 47.5305 44.9271C47.931 44.1068 47.8138 43.0303 47.257 42.3433L46.9249 41.9435L47.2863 41.0002L47.638 40.0672H48.0873C48.9469 40.0569 49.8065 39.4007 50.0409 38.56C50.1093 38.3139 50.1386 37.5552 50.1191 36.5709C50.0898 34.992 50.0898 34.9714 49.8065 34.5408C49.4353 33.9872 48.8199 33.6078 48.1557 33.536L47.638 33.4848L47.2863 32.6133L46.9347 31.7418L47.2668 31.2906C47.6673 30.737 47.8333 30.132 47.7649 29.4861C47.6966 28.8914 47.5403 28.5633 47.0226 27.9482L46.6221 27.4765V16.2085C46.6221 6.67325 46.5928 4.83796 46.4755 4.23304C46.1337 2.53105 45.1373 1.10588 43.8088 0.418934L43.0665 0.0293198L23.4813 0.00881577C4.2381 -0.011692 3.87668 -0.011692 3.35896 0.183117ZM42.9785 2.43877C43.5646 2.78737 43.8675 3.16673 44.2484 4.02798L44.5219 4.64316L44.5512 9.12371L44.5805 13.6145H23.3739H2.16725L2.19656 9.07244L2.22586 4.54063L2.50914 3.90495C2.81195 3.21799 3.42734 2.52079 3.96459 2.28497C4.22833 2.16194 7.29552 2.14143 23.3739 2.13118H42.4706L42.9785 2.43877ZM38.6122 26.6358C38.6806 27.9072 38.6806 27.9072 40.1263 28.3788C40.5072 28.5018 41.1324 28.7889 41.5231 29.0042C42.5781 29.5989 42.9004 29.5681 43.6819 28.8197L44.2875 28.2455L45.0201 29.0042L45.7429 29.7527L45.2643 30.2756C44.4145 31.1881 44.3949 31.4034 45.0006 32.6645C45.235 33.1669 45.528 33.9154 45.6453 34.3358C45.9676 35.4431 46.1337 35.5969 47.1886 35.6584L48.0384 35.7097L48.0678 36.8067L48.0971 37.914H47.3351C46.1532 37.914 45.9969 38.0678 45.5866 39.493C45.489 39.8314 45.2252 40.4875 44.9908 40.9592C44.3949 42.169 44.4145 42.3741 45.1666 43.2046L45.7722 43.8505L45.108 44.5785C44.7368 44.9681 44.3754 45.2962 44.2972 45.2962C44.2191 45.2962 43.8968 45.0399 43.5842 44.7323C42.8809 44.0351 42.5878 43.9941 41.6892 44.517C41.3668 44.7118 40.6342 45.0399 40.0774 45.2347C38.7294 45.7166 38.6708 45.7883 38.622 46.9469L38.5927 47.8697L37.5475 47.8389L36.512 47.8082L36.4632 46.9162C36.4046 45.8088 36.2581 45.6345 35.2129 45.3064C34.8222 45.1834 34.1188 44.8758 33.6597 44.6297C32.4583 43.9736 32.2238 43.9941 31.4424 44.7835L30.8367 45.3885L30.1334 44.6503C29.7427 44.2401 29.4301 43.8608 29.4301 43.8095C29.4301 43.7582 29.6743 43.4507 29.9772 43.1328C30.6902 42.3843 30.7098 42.087 30.1334 40.9899C29.9185 40.5696 29.6255 39.8211 29.479 39.329C29.1176 38.1191 28.971 37.9858 27.8868 37.914L27.0369 37.8628V36.7862V35.7097L27.877 35.6789C28.9515 35.6379 29.1273 35.4943 29.4301 34.4178C29.5474 33.9974 29.8404 33.2489 30.0748 32.7568C30.6707 31.4957 30.6609 31.2394 29.9674 30.4499C29.6743 30.1115 29.4301 29.7937 29.4301 29.7424C29.4301 29.6912 29.7329 29.3323 30.1041 28.953L30.7879 28.2455L31.374 28.8197C32.2141 29.6296 32.3801 29.6502 33.5914 29.0145C34.1188 28.7274 34.871 28.3993 35.2519 28.2865C36.2288 27.9892 36.4046 27.7636 36.4437 26.7588C36.4632 26.3282 36.4925 25.9078 36.512 25.8361C36.5511 25.7438 36.8148 25.713 37.5572 25.7335L38.5633 25.7643L38.6122 26.6358Z" fill="#1B2559"/>
<path d="M8.02808 4.62268C6.97312 5.09432 6.30889 5.89405 6.02561 7.04238C5.64465 8.64184 6.37726 10.3233 7.79364 11.0615C8.21367 11.2769 8.4188 11.3076 9.25886 11.3076C10.0794 11.3076 10.3138 11.2666 10.685 11.0718C11.4079 10.7027 11.906 10.1798 12.2577 9.43132C12.5507 8.81614 12.58 8.66235 12.58 7.87287C12.5703 7.19618 12.5214 6.88859 12.3554 6.49897C12.0232 5.73 11.5348 5.17634 10.8511 4.79698C10.3138 4.48939 10.1282 4.44838 9.40539 4.41762C8.70208 4.38686 8.48718 4.41762 8.02808 4.62268ZM9.90356 6.7758C10.0892 6.89884 10.3138 7.18592 10.4213 7.40123C10.6459 7.89338 10.5287 8.39577 10.0892 8.8469C9.82542 9.11348 9.7082 9.15449 9.25886 9.15449C8.80953 9.15449 8.69231 9.11348 8.43834 8.85716C8.07692 8.48805 7.92063 7.98565 8.03785 7.55503C8.1453 7.16542 8.29182 6.97061 8.67278 6.72454C9.0635 6.47847 9.50307 6.48872 9.90356 6.7758Z" fill="#1B2559"/>
<path d="M16.7316 4.5612C15.8525 4.87904 15.2566 5.45321 14.7682 6.4375C14.5728 6.82711 14.5435 7.05267 14.5338 7.87291C14.5338 9.052 14.7389 9.58516 15.5106 10.3951C16.2139 11.1334 16.8976 11.3897 18.0014 11.3384C18.9783 11.2872 19.5741 11.0206 20.2286 10.3234C22.2897 8.12924 20.7658 4.3664 17.8256 4.3869C17.4642 4.39715 16.9758 4.46893 16.7316 4.5612ZM18.4019 6.69382C19.0369 7.04242 19.2908 8.07797 18.8708 8.63163C18.2554 9.45187 17.1028 9.34934 16.6925 8.44708C16.4971 8.01645 16.4971 7.73962 16.673 7.38077C17.0442 6.6323 17.7572 6.34522 18.4019 6.69382Z" fill="#1B2559"/>
<path d="M28.3849 4.53029C27.457 4.83788 26.6462 5.64786 26.2946 6.63215C26.0211 7.41137 26.0601 8.72375 26.3922 9.4107C26.6951 10.0361 27.3202 10.7026 27.9161 11.0307L28.4045 11.3075L33.5816 11.3383C39.3448 11.369 39.2862 11.3793 40.1946 10.6821C41.1324 9.95411 41.6794 8.52895 41.4645 7.3396C41.2496 6.12975 40.5951 5.20698 39.589 4.70459L39.0518 4.43801L33.9235 4.4175C29.9088 4.40725 28.7073 4.42776 28.3849 4.53029ZM38.7099 6.69366C39.6476 7.19606 39.6476 8.54945 38.7099 9.05185C38.4754 9.18514 37.694 9.20564 33.777 9.20564C28.6487 9.20564 28.7366 9.21589 28.3556 8.5597C27.9747 7.90351 28.2287 6.98075 28.8734 6.69366C29.352 6.4681 38.2996 6.4681 38.7099 6.69366Z" fill="#1B2559"/>
<path d="M36.2678 30.5832C35.1933 30.8395 34.0798 31.4855 33.2885 32.3262C30.7488 34.9817 30.9344 39.2982 33.6988 41.7179C34.3142 42.2613 35.5743 42.897 36.346 43.0508C37.1763 43.2149 38.6903 43.1226 39.5011 42.8458C41.1812 42.2921 42.6659 40.7439 43.2716 38.9394C43.6037 37.9243 43.6916 36.3249 43.4572 35.3508C42.9395 33.1977 41.3961 31.4342 39.4425 30.778C38.4559 30.4499 37.1665 30.3679 36.2678 30.5832ZM38.2312 32.6851C39.4913 32.9311 40.5463 33.7821 41.1226 35.0227C41.4742 35.7609 41.4938 35.8532 41.4938 36.776C41.484 38.1601 41.2496 38.7548 40.3314 39.7186C39.4132 40.6824 38.8466 40.9284 37.5377 40.9387C36.6976 40.9387 36.5511 40.9079 35.9552 40.6106C34.2849 39.7801 33.3178 37.9448 33.6206 36.1916C33.9332 34.4383 35.0761 33.1567 36.7074 32.7261C37.3325 32.562 37.5865 32.562 38.2312 32.6851Z" fill="#1B2559"/>
<path d="M9.15142 22.3194C8.87791 22.4425 6.24052 25.4671 5.87909 26.072C5.61536 26.5232 5.62512 27.3434 5.9084 27.7228C6.47495 28.4815 8.7607 31.1165 8.99513 31.2703C9.42493 31.5676 9.8645 31.5061 10.2455 31.1062C10.6069 30.7269 10.6753 30.3065 10.4604 29.8861C10.4017 29.7631 9.82542 29.0556 9.1905 28.3072C8.55557 27.569 8.03785 26.9128 8.03785 26.8615C8.03785 26.8102 8.5458 26.1746 9.17096 25.4466C10.4506 23.9394 10.6362 23.6318 10.5385 23.1294C10.431 22.4937 9.70821 22.0734 9.15142 22.3194Z" fill="#FE4A23"/>
<path d="M20.0918 22.3193C19.7402 22.4833 19.4667 22.9344 19.4667 23.3651C19.4667 23.7854 19.4178 23.7239 21.4496 26.1129C21.7524 26.482 22.0064 26.8203 22.0064 26.8613C22.0064 26.9023 21.4887 27.5483 20.8537 28.2967C20.209 29.0452 19.6425 29.7629 19.5839 29.886C19.115 30.7985 20.1407 31.834 20.9905 31.3214C21.2347 31.1778 23.9112 28.0507 24.1651 27.6098C24.38 27.2612 24.4093 26.4922 24.2237 26.1641C24.0968 25.9181 21.5961 22.9447 21.1956 22.5551C20.9319 22.2988 20.4044 22.186 20.0918 22.3193Z" fill="#FE4A23"/>
<path d="M14.4457 38.0678C14.0355 38.2934 13.9086 38.5292 13.8988 39.0213C13.8988 39.657 14.2894 40.0671 14.9144 40.0671C15.5199 40.0671 15.8519 39.7595 15.9203 39.1341C15.9691 38.724 15.9398 38.6215 15.6957 38.3344C15.3539 37.9345 14.8558 37.832 14.4457 38.0678Z" fill="#1B2559"/>
</svg>
