<svg width="24" height="25" viewBox="0 0 24 25" fill="none" xmlns="http://www.w3.org/2000/svg">
<path d="M4.22199 20.7579C4.68587 21.2225 5.23696 21.5908 5.84361 21.8417C6.45026 22.0926 7.10051 22.2211 7.75699 22.2199C8.41362 22.2211 9.06401 22.0925 9.67082 21.8416C10.2776 21.5907 10.8289 21.2225 11.293 20.7579L14.121 17.9289L12.707 16.5149L9.87899 19.3439C9.31546 19.905 8.55266 20.2199 7.75749 20.2199C6.96232 20.2199 6.19952 19.905 5.63599 19.3439C5.0745 18.7807 4.7592 18.0178 4.7592 17.2224C4.7592 16.4271 5.0745 15.6642 5.63599 15.1009L8.46499 12.2729L7.05099 10.8589L4.22199 13.6869C3.2858 14.6254 2.76004 15.8969 2.76004 17.2224C2.76004 18.548 3.2858 19.8195 4.22199 20.7579ZM19.778 12.2729C20.7137 11.3342 21.2391 10.0629 21.2391 8.73744C21.2391 7.41202 20.7137 6.14066 19.778 5.20194C18.8395 4.26575 17.5681 3.73999 16.2425 3.73999C14.9169 3.73999 13.6454 4.26575 12.707 5.20194L9.87899 8.03094L11.293 9.44494L14.121 6.61594C14.6845 6.05493 15.4473 5.73997 16.2425 5.73997C17.0377 5.73997 17.8005 6.05493 18.364 6.61594C18.9255 7.17921 19.2408 7.94211 19.2408 8.73744C19.2408 9.53277 18.9255 10.2957 18.364 10.8589L15.535 13.6869L16.949 15.1009L19.778 12.2729Z" fill="#9D9D9D"/>
<path d="M8.46401 17.93L7.04901 16.516L15.536 8.03003L16.95 9.44503L8.46401 17.93Z" fill="#9D9D9D"/>
</svg>
