<svg width="75" height="75" viewBox="0 0 75 75" fill="none" xmlns="http://www.w3.org/2000/svg">
<g clip-path="url(#clip0_1058_1751)">
<path d="M58.916 0.234188C54.0381 0.995907 49.043 3.03204 44.2383 6.2254C41.8066 7.85137 40.2539 9.11114 38.3057 11.074L36.6943 12.6854L34.6729 12.8758C30.8057 13.2274 27.4951 14.1356 24.5801 15.6297C22.8223 16.5232 21.0205 17.7977 20.1709 18.7498C19.7168 19.2479 19.6289 19.4383 19.6289 20.0096C19.6289 20.5369 19.7168 20.7566 20.0391 21.0789C20.376 21.4305 20.8887 21.5916 23.6572 22.2508C27.583 23.1883 27.3047 23.0857 27.1729 23.408C26.9531 23.9939 26.9385 24.4481 27.1436 24.8436C27.2754 25.0779 30.0146 27.9051 33.2373 31.1277L39.1113 36.9871H39.7998C40.1953 36.9871 40.6055 36.9285 40.7227 36.8699C40.8984 36.782 41.0742 37.3533 41.748 40.1512C42.2168 42.202 42.6416 43.6814 42.8174 43.8865C43.2275 44.4139 44.0625 44.6043 44.707 44.3406C46.0547 43.7693 48.5303 39.9168 49.7021 36.533C50.5664 34.0574 51.2695 30.3074 51.2695 28.242V27.4949L53.2178 25.5027C56.3818 22.2508 58.4473 19.3211 60.4834 15.2195C62.6221 10.9422 63.7646 6.94317 64.0869 2.63653C64.1894 1.28888 64.0869 0.790829 63.5596 0.30743C63.2666 0.02911 63.0615 -0.00018692 61.7578 0.0144615C60.9375 0.02911 59.6631 0.117001 58.916 0.234188ZM60.6152 4.3504C60.0146 9.09649 57.4658 14.9119 53.9502 19.5848C52.1484 22.0018 50.874 23.2762 45.1318 28.4617L39.9463 33.1346L35.4346 28.6229L30.9229 24.1111L32.124 22.7928C32.7979 22.0604 34.8779 19.7459 36.7529 17.6512C40.4883 13.4764 41.3965 12.5682 43.5791 10.7957C47.168 7.89532 51.709 5.49298 55.8105 4.30645C57.4805 3.8377 59.5166 3.39825 60.2197 3.3836L60.7471 3.36895L60.6152 4.3504ZM31.6992 18.3104C30.2051 19.9656 29.7949 20.3465 29.5312 20.2879C27.627 19.8484 25.1807 19.2186 25.1221 19.16C24.9756 19.0135 27.29 17.9002 28.7256 17.4168C29.8096 17.0506 32.8125 16.3182 33.4424 16.2742C33.501 16.2596 32.7246 17.1824 31.6992 18.3104ZM47.4756 32.2264C47.0801 34.2039 46.2891 36.5184 45.5273 37.9979L44.8975 39.1844L44.2969 36.6941L43.6963 34.2186L45.6885 32.4314C46.7725 31.4354 47.6953 30.659 47.7246 30.6883C47.7539 30.7176 47.6367 31.4061 47.4756 32.2264Z" fill="white"/>
<path d="M3.36913 12.583C2.54882 12.832 1.7578 13.3594 1.12792 14.0625C-0.0879016 15.4102 -1.09319e-05 13.5205 -1.09319e-05 37.4854C-1.09319e-05 61.8164 -0.117198 59.6338 1.31835 61.0986C1.90429 61.6992 2.35839 62.0068 2.97362 62.2412C3.80858 62.5488 3.91112 62.5488 17.5049 62.5488H31.2012V67.1631V71.7773H27.1728C22.8369 71.7773 22.5586 71.8213 22.0605 72.5391C21.6064 73.1836 21.8994 74.502 22.5439 74.8535C22.9394 75.0586 52.0605 75.0586 52.456 74.8535C53.1006 74.502 53.3935 73.1836 52.9394 72.5391C52.4414 71.8213 52.1631 71.7773 47.8271 71.7773H43.7988V67.1631V62.5488H57.4951C71.0889 62.5488 71.1914 62.5488 72.0264 62.2412C72.6416 62.0068 73.0957 61.6992 73.6963 61.0986C75.1172 59.6484 75 61.8164 75 37.5C75 13.5205 75.0879 15.4248 73.8721 14.0625C73.5059 13.6523 72.8613 13.1396 72.4512 12.9199C71.748 12.5537 71.5723 12.5244 69.3164 12.4805C66.1523 12.4072 65.625 12.627 65.625 14.0332C65.625 15.3955 65.9619 15.5859 68.7451 15.6738L70.9277 15.7471L71.3525 16.2305L71.7773 16.6992V37.5V58.3008L71.3525 58.7695L70.9277 59.2529H37.5H4.07226L3.64745 58.7695L3.22265 58.3008V37.5V16.6992L3.64745 16.2305L4.07226 15.7471L10.9424 15.6738C18.1055 15.6006 18.2666 15.5859 18.6035 14.9414C18.7939 14.5898 18.7939 13.5352 18.6035 13.1689C18.2226 12.4658 18.0615 12.4512 10.6641 12.4658C6.85546 12.4658 3.57421 12.5244 3.36913 12.583ZM40.5762 67.1631V71.7773H37.5H34.4238V67.1631V62.5488H37.5H40.5762V67.1631Z" fill="white"/>
<path d="M25.6787 30.5418C24.4775 30.8055 23.4082 31.3915 22.5439 32.2557C21.3281 33.4569 19.7314 36.9725 18.0029 42.2459C17.0801 45.0145 17.0068 45.4686 17.3584 46.1424C17.8857 47.1532 18.6328 47.1239 22.1777 45.9374C30.3809 43.1981 32.6514 41.7186 33.4717 38.5985C34.7021 33.8231 30.4687 29.4432 25.6787 30.5418ZM28.3887 33.9256C29.8389 34.5262 30.6885 36.1522 30.3223 37.6463C29.9268 39.3163 28.3887 40.2538 22.8076 42.2459L21.3574 42.7586L21.46 42.3631C21.8701 40.6932 24.0088 35.6541 24.6826 34.7752C25.415 33.8084 27.1582 33.4129 28.3887 33.9256Z" fill="white"/>
</g>
<defs>
<clipPath id="clip0_1058_1751">
<rect width="75" height="75" fill="white"/>
</clipPath>
</defs>
</svg>
