<svg width="75" height="73" viewBox="0 0 75 73" fill="none" xmlns="http://www.w3.org/2000/svg">
<path d="M68.4082 0.259766C67.8516 0.464844 66.6357 1.60742 60.7178 7.51074L53.6865 14.5273L51.9287 11.334C49.8926 7.65723 49.1895 6.79297 47.9004 6.41211C46.9336 6.11914 46.5381 6.11914 45.6152 6.39746C44.0479 6.86621 43.0664 8.24316 43.0664 9.98633C43.0664 10.7188 43.2275 11.4365 43.7256 13.0186C44.2676 14.7178 44.5312 15.9629 45.1758 20.0498L45.9814 25.001L42.9492 28.0332L39.917 31.0801H21.2256H2.51953L1.74316 31.4902C1.24512 31.7393 0.791016 32.1348 0.512695 32.5303C0.0732422 33.1602 0.0732422 33.1602 0.0292969 35.4893L-0.0146484 37.8184H1.08398H2.19727V36.2217C2.19727 34.5225 2.3584 33.79 2.7832 33.5703C3.14941 33.3652 51.7822 33.3652 52.1484 33.5703C52.6904 33.8633 52.7344 34.4053 52.7344 42.1396C52.7344 49.874 52.6904 50.416 52.1484 50.709C51.7822 50.9141 3.14941 50.9141 2.7832 50.709C2.25586 50.4307 2.19727 49.7861 2.19727 44.7617V39.8691H1.09863H-0.0146484L0.0292969 45.4941L0.0732422 51.1191L0.512695 51.749C0.791016 52.1445 1.24512 52.54 1.74316 52.7891L2.51953 53.1992H7.45605H12.3779L12.334 61.5781C12.3047 67.9209 12.334 70.1328 12.4805 70.6309C12.7148 71.4805 13.7549 72.5498 14.5898 72.7988C15.0586 72.9307 20.5664 72.9746 38.5107 72.9746H61.8164V71.8027V70.6309H38.5986H15.3662L15.0146 70.2646L14.6484 69.9131V61.915V53.917L15.0146 53.5654L15.3662 53.1992H43.6523C61.8311 53.1992 72.041 53.2578 72.2168 53.3457C72.7588 53.6387 72.8027 54.1807 72.8027 61.915C72.8027 69.6494 72.7588 70.1914 72.2168 70.4844C72.0703 70.5723 71.1475 70.6309 70.1807 70.6309H68.4082V71.8027V72.9746H70.4443C72.3779 72.9746 72.5098 72.96 73.2568 72.5645C73.7549 72.3154 74.209 71.9199 74.4873 71.5244L74.9268 70.8945V61.915V52.9355L74.4873 52.3057C74.209 51.9102 73.7549 51.5146 73.2568 51.2656L72.4805 50.8555H63.7061H54.9316V46.3438V41.8467L57.0264 39.7812L59.1064 37.7158L62.3291 36.793L65.5518 35.8701L69.917 31.5342C74.8242 26.6562 75 26.4219 75 24.752C75 24.1953 74.9121 23.5215 74.7949 23.2578C74.4873 22.5107 73.5938 21.6172 72.876 21.3096L72.2168 21.0459V20.0938C72.2168 18.4678 71.2646 17.0176 69.917 16.5635C69.4336 16.417 69.4336 16.4023 69.4336 15.4795C69.4336 14.9668 69.3604 14.3662 69.2725 14.1318C69.0088 13.4287 68.3936 12.6377 67.8369 12.3008C67.5439 12.125 67.2803 11.9639 67.251 11.9346C67.207 11.9053 68.54 10.5137 70.1953 8.84375C73.4766 5.5332 73.5938 5.35742 73.5791 3.76074C73.5645 1.68066 72.1289 0.186523 70.0195 0.0839844C69.4043 0.0546875 68.833 0.113281 68.4082 0.259766ZM70.708 2.69141C70.8398 2.79395 71.0303 3.10156 71.1475 3.35059C71.3086 3.76074 71.3086 3.90723 71.1328 4.30273C71.0156 4.58105 68.4961 7.20312 65.3467 10.3525C62.2705 13.4141 59.7656 15.9775 59.7656 16.0654C59.7656 16.2559 61.1133 17.6035 61.3037 17.6035C61.3916 17.6035 62.2119 16.8418 63.1348 15.9189C64.043 14.9961 64.9805 14.1758 65.2148 14.0732C66.0938 13.707 67.0898 14.4395 67.0898 15.4502C67.0898 16.0215 67.002 16.1387 65.0098 18.1455L62.9297 20.2402L63.7646 21.0898L64.5996 21.9248L66.167 20.3574C67.8955 18.6289 68.3057 18.4238 69.1113 18.834C69.6826 19.127 69.873 19.4785 69.873 20.1816C69.873 20.6797 69.7266 20.8701 68.042 22.5693L66.2109 24.4297L67.0459 25.2646L67.8809 26.0996L69.3018 24.708C70.5762 23.4482 70.7666 23.3164 71.25 23.3164C72.0557 23.3164 72.6562 23.9609 72.6562 24.7959C72.6562 25.4111 72.6416 25.4404 68.5107 29.5713L64.3799 33.7314L61.084 34.6836L57.7881 35.6357L56.3672 37.042L54.9463 38.4482L54.9023 35.7969L54.8584 33.1602L54.4189 32.5303C54.1406 32.1348 53.6865 31.7393 53.1885 31.4902L52.4121 31.0801H47.8418H43.2861L45.8936 28.4727L48.4863 25.8652L47.5488 19.9473C46.7432 14.9082 46.5088 13.751 45.9961 12.2715C45.1758 9.83984 45.2344 9.10742 46.2891 8.66797C46.8018 8.44824 47.3877 8.63867 47.8711 9.15137C48.1641 9.47363 51.8555 16.0508 51.8555 16.2559C51.8555 16.3291 51.6211 16.5928 51.3428 16.8711C51.0645 17.1494 50.8301 17.4424 50.8301 17.5303C50.8301 17.6182 51.1816 18.0283 51.6064 18.4531L52.3682 19.2148L60.498 11.0703C64.9658 6.58789 68.833 2.79395 69.0674 2.64746C69.5508 2.3252 70.3125 2.35449 70.708 2.69141Z" fill="white"/>
<path d="M57.2754 22.0713L56.4697 22.877L57.3193 23.7266L58.1543 24.5615L58.9893 23.7266L59.8389 22.877L59.0332 22.0713C58.5938 21.6318 58.1982 21.2656 58.1543 21.2656C58.1104 21.2656 57.7148 21.6318 57.2754 22.0713Z" fill="white"/>
<path d="M60.3516 25.1475L59.5459 25.9531L60.3955 26.8027L61.2305 27.6377L62.0654 26.8027L62.915 25.9531L62.1094 25.1475C61.6699 24.708 61.2744 24.3418 61.2305 24.3418C61.1865 24.3418 60.791 24.708 60.3516 25.1475Z" fill="white"/>
<path d="M51.5625 1.91508C50.9619 2.07622 50.5957 2.252 50.5664 2.39848C50.5225 2.61821 51.4746 6.57329 51.5918 6.69047C51.6211 6.73442 51.8848 6.69047 52.1631 6.61723C52.4414 6.54399 52.9395 6.41215 53.2617 6.33891L53.877 6.17778L53.4375 4.44926C52.7783 1.78325 52.7344 1.63676 52.6172 1.65141C52.5586 1.65141 52.0898 1.78325 51.5625 1.91508Z" fill="white"/>
<path d="M57.0557 1.82715C56.7773 2.63281 56.001 6.11914 56.0742 6.19238C56.1621 6.26562 58.0078 6.76367 58.1982 6.76367C58.3154 6.76367 59.3701 2.36914 59.2822 2.28125C59.2383 2.2373 58.7402 2.07617 58.1543 1.92969C57.3926 1.73926 57.0996 1.70996 57.0557 1.82715Z" fill="white"/>
<path d="M38.4961 37.2031C38.0273 37.4961 37.6465 37.8037 37.6465 37.877C37.6465 37.9502 38.3057 39.0195 39.1113 40.2646L40.5762 42.5205V44.9229V47.3398H41.748H42.9199V44.8936V42.4619L44.3848 40.2061C45.1904 38.9609 45.8203 37.8916 45.7764 37.8184C45.6006 37.54 43.916 36.6172 43.7988 36.7344C43.7402 36.8076 43.2422 37.5547 42.7002 38.3896L41.7187 39.9277L40.6787 38.2871C40.0928 37.3789 39.5654 36.6465 39.4775 36.6465C39.4043 36.6465 38.9502 36.8955 38.4961 37.2031Z" fill="white"/>
<path d="M9.52148 42.0664V47.1934H12.3779H15.2344V46.0215V44.8496H13.5498H11.8652V44.0439V43.2383H13.4033H14.9414V42.0664V40.8945H13.4033H11.8652V40.0889V39.2832H13.5498H15.2344V38.1113V36.9395H12.3779H9.52148V42.0664Z" fill="white"/>
<path d="M20.5371 38.0674C19.3799 41.085 17.2852 46.6074 17.2852 46.666C17.2852 46.7832 19.3506 47.5156 19.4385 47.4277C19.4971 47.3691 19.7021 46.8857 19.9219 46.3438L20.2881 45.3623L21.9141 45.3184L23.54 45.2744L23.9502 46.3877C24.1699 46.9883 24.4043 47.4863 24.4629 47.4863C24.6533 47.4863 26.2793 46.8711 26.4258 46.7393C26.499 46.666 25.7812 44.5566 24.7412 41.7881L22.9248 36.9395H21.9434H20.9619L20.5371 38.0674ZM22.2949 42.0371C22.4414 42.418 22.5586 42.7695 22.5586 42.8281C22.5586 42.9014 22.251 42.9453 21.8848 42.9453C21.2988 42.9453 21.2256 42.916 21.3135 42.6816C21.3721 42.5498 21.5186 42.1543 21.6357 41.8027C21.7529 41.4512 21.8994 41.2168 21.9434 41.2607C22.002 41.3047 22.1484 41.6562 22.2949 42.0371Z" fill="white"/>
<path d="M30.8203 37.1738C30.1025 37.4229 29.3262 38.1553 29.0625 38.7998C28.6377 39.7959 28.9307 41.2607 29.6924 41.9492C29.8535 42.0957 30.6299 42.4766 31.4209 42.7988C33.6328 43.6924 33.8818 43.9268 33.252 44.5566C33.0469 44.7617 32.7686 44.8496 32.2705 44.8496C31.4648 44.8496 30.7617 44.4834 30.1025 43.707L29.6484 43.1943L28.7842 44L27.9199 44.8057L28.4033 45.4062C29.3848 46.6074 30.6445 47.1934 32.2852 47.1934C34.248 47.1934 35.6982 46.0654 35.8594 44.4248C36.0205 42.7695 35.1709 41.7441 32.9297 40.8506C31.1572 40.1475 31.084 40.0889 31.2891 39.7666C31.7285 39.0635 32.8857 39.1953 33.999 40.0889L34.6436 40.5869L35.1855 39.9717C36.0938 38.9316 36.1377 38.7705 35.6543 38.3457C35.4199 38.1406 34.8047 37.7451 34.292 37.4961C33.1787 36.9395 31.8018 36.8076 30.8203 37.1738Z" fill="white"/>
<path d="M31.4062 56.9198C29.8975 57.3007 28.7988 58.1942 28.0078 59.6884C27.6562 60.3768 27.6123 60.5966 27.6123 61.9149C27.6123 63.2333 27.6562 63.453 28.0225 64.1561C28.8574 65.7528 30.0439 66.6464 31.7578 66.9686C34.0283 67.4227 36.3428 66.2216 37.3682 64.0682C37.8223 63.1161 37.9102 61.4169 37.5732 60.3329C36.7822 57.7987 33.999 56.2606 31.4062 56.9198ZM33.4131 59.2196C35.0977 59.7909 35.8887 61.5341 35.1709 63.1014C34.6436 64.2587 33.1934 64.9764 32.0508 64.6395C29.2822 63.8192 29.165 60.1718 31.8604 59.2343C32.4463 59.0292 32.8125 59.0292 33.4131 59.2196Z" fill="white"/>
<path d="M42.0703 60.5529C42.1143 64.171 42.1289 64.4347 42.4365 64.9913C42.832 65.7238 43.3887 66.2511 44.2383 66.6906C45.2197 67.1886 46.8164 67.174 47.8418 66.632C48.7354 66.1779 49.541 65.2843 49.7754 64.4933C49.8926 64.1417 49.9512 62.6329 49.9512 60.3185V56.715H48.7793H47.6074V60.2159C47.6074 63.5118 47.5928 63.7316 47.2998 64.0831C47.1387 64.3029 46.7578 64.5519 46.4355 64.6398C45.9668 64.7863 45.791 64.7716 45.3223 64.5372C44.4287 64.0978 44.3848 63.922 44.3848 60.1134V56.715H43.1982H42.0264L42.0703 60.5529Z" fill="white"/>
<path d="M55.4443 56.8466C53.9502 57.2421 53.0273 58.3701 53.0273 59.8203C53.0273 60.538 53.4961 61.4462 54.0527 61.8564C54.2578 62.0175 55.0781 62.3984 55.8838 62.7207C56.6748 63.0576 57.4219 63.3945 57.5244 63.4824C57.7881 63.7021 57.7588 64.0976 57.4658 64.3759C56.748 65.0205 55.5176 64.7714 54.5508 63.8046C54.1846 63.4531 53.8623 63.1601 53.8184 63.1601C53.6865 63.1601 52.1484 64.5078 52.1484 64.625C52.1484 64.9619 53.4521 66.1337 54.2871 66.5439C55.8838 67.3349 57.8467 67.1884 58.9746 66.1923C60.4541 64.9033 60.4102 62.6621 58.8867 61.5634C58.5645 61.3291 57.6562 60.875 56.8799 60.582C55.459 60.0107 55.21 59.8056 55.5029 59.4394C55.9863 58.8681 57.1875 59.0732 58.1396 59.8935L58.7842 60.4355L59.4873 59.6298C59.8828 59.205 60.2051 58.7656 60.2051 58.6777C60.2051 58.3994 59.1797 57.5791 58.374 57.2128C57.5537 56.832 56.1475 56.6562 55.4443 56.8466Z" fill="white"/>
<path d="M62.2559 61.8418V66.9688H65.1123H67.9688V65.7969V64.625H66.2842H64.5996V63.8193V63.0137H66.1377H67.6758V61.8418V60.6699H66.1377H64.5996V59.8643V59.0586H66.2842H67.9688V57.8867V56.7148H65.1123H62.2559V61.8418Z" fill="white"/>
<path d="M19.4824 58.0332V59.2051H20.5811H21.6797V63.0869V66.9688H22.8516H24.0234V63.0869V59.2197L25.0928 59.1758L26.1475 59.1318L26.1914 57.9893L26.2354 56.8613H22.8516H19.4824V58.0332Z" fill="white"/>
<path d="M64.0137 71.8027V72.9746H65.1123H66.2109V71.8027V70.6309H65.1123H64.0137V71.8027Z" fill="white"/>
</svg>
