<svg width="76" height="75" viewBox="0 0 76 75" fill="none" xmlns="http://www.w3.org/2000/svg">
<path d="M50.79 0.171589C49.4863 0.640339 48.4023 1.78292 48.0508 3.04268C47.9629 3.33565 47.9043 5.89913 47.9043 9.04854V14.5417L48.3144 15.4206C48.9883 16.8269 50.0137 17.5739 51.6836 17.8376C52.123 17.9108 52.5625 18.0573 52.6797 18.1452C52.8408 18.2771 52.8848 18.9509 52.8848 21.4558C52.8848 24.9567 52.9726 25.3815 53.793 25.8942C54.4521 26.319 55.5508 26.2312 56.0488 25.7331C56.2392 25.528 57.3818 23.7556 58.5683 21.7927C59.9892 19.405 60.8389 18.1452 61.0879 18.028C61.3662 17.8962 62.8017 17.8376 66.6689 17.8376H71.8691L72.6162 17.4567C73.4951 17.0319 74.3301 16.1677 74.7256 15.2888C74.9453 14.8054 75.0039 14.3366 75.0039 12.8278C75.0039 10.9968 75.0039 10.9675 74.623 10.6745C74.1396 10.2937 73.6855 10.279 73.2168 10.6599C72.8799 10.9235 72.8359 11.0554 72.7773 12.447C72.7041 14.1462 72.499 14.6882 71.7519 15.2302C71.2685 15.5671 71.2392 15.5671 65.6875 15.6403L60.1064 15.7136L59.5351 16.0944C59.081 16.4021 58.583 17.1052 57.1328 19.5222L55.3017 22.5837L55.2285 20.0935C55.1699 17.9694 55.1113 17.5446 54.8623 17.1198C54.3642 16.2849 53.6318 15.8015 52.6064 15.6257C51.4346 15.4499 50.8926 15.1716 50.541 14.571C50.2627 14.1315 50.248 13.7946 50.248 8.9753C50.248 3.23311 50.2627 3.11592 51.2881 2.57393C51.7568 2.32491 52.3721 2.31026 61.4541 2.31026C70.3603 2.31026 71.166 2.32491 71.6348 2.57393C72.4551 2.98409 72.6894 3.55538 72.792 5.48897C72.8652 6.92452 72.9238 7.20284 73.1582 7.37862C73.583 7.68624 74.3594 7.64229 74.7109 7.29073C74.9746 7.02706 75.0039 6.80733 75.0039 5.18135C75.0039 3.11592 74.8281 2.4421 74.0664 1.51925C73.7881 1.18233 73.2168 0.713581 72.792 0.479206L72.001 0.039753L61.6738 0.0104561C53.2363 -0.0188408 51.2441 0.0104561 50.79 0.171589Z" fill="white"/>
<path d="M21.7568 4.2876C18.124 5.09326 15.2676 7.59814 14.0078 11.0845C13.5097 12.4468 13.334 14.0288 13.334 17.0317L13.3193 19.522L12.7627 19.9028C12.4258 20.1372 12.0596 20.5913 11.8105 21.0747C11.4297 21.8364 11.4297 21.9097 11.4297 24.7808C11.4297 27.564 11.459 27.769 11.7812 28.4575C12.4258 29.8491 13.4512 30.4351 15.209 30.4351H16.3515L16.5273 31.4604C17.0254 34.3755 18.7978 37.188 21.332 39.1069L22.123 39.6929V41.3774C22.123 43.106 22.0058 43.5747 21.4346 44.0874C21.1855 44.3218 20.5556 44.3511 14.5791 44.3804C8.06053 44.4243 7.98729 44.4243 7.31346 44.7612C6.4785 45.1714 5.65818 45.9478 5.27732 46.6948C4.76463 47.6909 4.67674 48.4526 4.82322 50.6792L4.94041 52.7593L4.29588 53.7114C2.83104 55.8501 1.55662 58.9849 1.11717 61.563C0.956036 62.4712 0.882793 63.8335 0.882793 65.9282V68.9604L0.487286 69.5757C-0.0400581 70.3521 -0.157246 71.8608 0.223614 72.8423C0.516582 73.6333 1.51268 74.5562 2.31834 74.7905C2.75779 74.9224 9.54002 74.9663 29.5498 74.9663H56.1953L56.957 74.5854C58.539 73.7944 59.2715 71.9634 58.6709 70.2642C58.539 69.9126 58.3486 69.5317 58.2461 69.3999C58.0849 69.2388 58.0263 68.3452 57.9678 65.7378C57.8799 62.1343 57.7041 60.8745 56.9863 58.6919C56.5322 57.3296 55.375 54.9858 54.584 53.7993L53.8955 52.7886L53.9834 50.4302C54.0859 48.2622 54.0713 48.0278 53.7783 47.2661C53.3828 46.2114 52.6797 45.4058 51.6982 44.8638L50.9072 44.4243L44.2275 44.3804C37.8701 44.3364 37.5332 44.3218 37.2842 44.0581C36.8301 43.5601 36.6396 42.7104 36.625 41.187V39.7075L37.1963 39.3267C38.1191 38.7114 39.54 37.3345 40.2285 36.353L40.8877 35.4448L42.5283 35.3862C43.876 35.3569 44.2861 35.2837 44.8428 35.0054C45.7656 34.5513 46.5566 33.7456 47.0107 32.7788L47.3916 31.9731V26.9927C47.3916 21.2358 47.3623 21.0747 46.1758 20.02L45.4873 19.4194L45.414 15.9624C45.3408 12.5347 45.3408 12.4761 44.9306 11.6558C44.2422 10.2495 42.9385 9.31201 41.2978 9.01904C40.624 8.90186 40.4336 8.81396 40.4336 8.60889C40.4336 8.4624 40.3017 7.92041 40.1406 7.39307C39.7597 6.17725 38.8515 5.12256 37.6797 4.55127L36.8447 4.14111L29.7402 4.11182C24.2471 4.09717 22.4306 4.12646 21.7568 4.2876ZM36.9765 6.90967C37.6064 7.37842 38.0752 8.30127 38.0898 9.03369C38.0898 10.1177 39.2031 11.231 40.3017 11.2456C40.9316 11.2603 41.8252 11.5825 42.2207 11.9341C42.3818 12.0806 42.6455 12.4468 42.792 12.7397C43.041 13.2378 43.0703 13.6479 43.0703 17.1343C43.0703 20.313 43.0263 21.0454 42.8506 21.3091C42.6894 21.5435 40.4482 22.5249 40.0527 22.5249C40.0234 22.5249 39.9941 21.2944 39.9941 19.771C39.9941 17.2515 39.9648 16.9585 39.6572 16.2114C39.042 14.7319 38.0166 13.7651 36.5517 13.2817C35.6435 12.9888 33.9443 13.0474 32.5234 13.4429C30.7363 13.9556 27.9678 13.9556 26.2978 13.4575C24.6133 12.9595 22.914 12.9595 21.8008 13.4722C20.6435 14.0142 19.75 14.8784 19.2519 15.9771C18.8564 16.856 18.8271 16.9878 18.7539 19.6831L18.6806 22.481L17.3623 22.0269C16.3662 21.6899 16 21.4849 15.8535 21.2065C15.5459 20.6206 15.6924 13.5015 16.0439 12.4175C16.9375 9.56104 19.2666 7.33447 22.0937 6.63135C22.7529 6.47021 24.3203 6.44092 29.6816 6.45557L36.4346 6.48486L36.9765 6.90967ZM25.6387 15.7427C26.9717 16.0942 27.4697 16.1382 29.374 16.1382C31.3076 16.1382 31.7617 16.0942 33.1679 15.728C34.9551 15.2739 35.4531 15.3032 36.4346 15.8745C37.5039 16.4897 37.6504 17.0171 37.6504 20.1958C37.6504 22.7153 37.6797 22.9497 37.9873 23.5503C38.3535 24.2827 39.2031 24.8687 39.9062 24.8687H40.331L40.2431 27.6812C40.1699 30.1274 40.0234 31.4751 39.8183 31.6802C39.789 31.7241 39.4375 31.5776 39.042 31.3726C38.3388 31.021 38.207 31.0063 36.1855 31.0503C33.666 31.1089 33.1679 31.2847 32.4209 32.3979C31.9961 33.0278 31.9375 33.2183 31.9375 34.0825C31.9375 35.269 32.3183 36.0015 33.2265 36.646C33.7685 37.0269 34.0176 37.1001 34.9697 37.144L36.0683 37.2026L35.6582 37.4956C34.7939 38.0669 33.2412 38.7847 32.2451 39.063C30.0332 39.6782 28.0263 39.5903 25.7705 38.7993C24.1152 38.2134 23.0752 37.5396 21.6689 36.1479C20.5996 35.0933 20.3066 34.6831 19.7353 33.5112C18.8271 31.6362 18.6074 30.479 18.6074 27.3882V24.9126L19.1787 24.8101C19.501 24.7661 19.9551 24.5464 20.2187 24.3413C21.039 23.6528 21.0976 23.3745 21.0976 20.5181C21.0976 19.0825 21.1709 17.6616 21.2588 17.354C21.5371 16.314 22.7529 15.3765 23.8076 15.3472C23.9687 15.3472 24.789 15.5229 25.6387 15.7427ZM15.458 23.8579L16.2637 24.1948V26.2163V28.2378H15.7949C15.0332 28.2378 14.2422 27.9595 13.9931 27.6079C13.8174 27.3589 13.7734 26.8022 13.7734 24.8687V22.4517L14.2129 22.9937C14.4765 23.3159 14.9746 23.6528 15.458 23.8579ZM45.0478 27.0073C44.9306 27.7104 44.4033 28.0913 43.4512 28.1938L42.6308 28.2817V26.231V24.1948L43.334 23.8726C43.7148 23.6968 44.2568 23.3159 44.5351 23.0376L45.0478 22.5103L45.0918 24.5317C45.1211 25.645 45.0918 26.7583 45.0478 27.0073ZM45.0625 30.9771C44.8867 32.2661 43.9638 33.0718 42.6748 33.0718C42.0888 33.0718 41.8984 33.0278 41.9424 32.8813C41.9863 32.7935 42.1328 32.1929 42.2793 31.5776L42.5283 30.4497L43.7148 30.3911C44.374 30.3765 44.9599 30.3325 45.0332 30.3179C45.1064 30.3032 45.1211 30.5962 45.0625 30.9771ZM38.1484 33.5991C38.4707 33.9067 38.4414 34.4927 38.1045 34.6831C37.9433 34.7563 37.1523 34.8296 36.332 34.8296C35.5117 34.8296 34.7207 34.7563 34.5596 34.6831C34.1933 34.478 34.1787 33.731 34.5449 33.5259C34.6767 33.438 35.4971 33.3647 36.3613 33.3647C37.5918 33.3647 37.9726 33.4087 38.1484 33.5991ZM26.3271 41.4507C27.3379 41.6997 28.0263 41.7729 29.5205 41.7583C31.3515 41.7437 31.8056 41.6704 33.9297 41.0552C34.2226 40.9673 34.2373 41.0259 34.3252 42.1831C34.3691 42.8569 34.457 43.6187 34.5156 43.8677L34.6181 44.3511H29.374C24.4521 44.3511 24.1445 44.3364 24.2471 44.0874C24.3203 43.9556 24.3935 43.1646 24.4375 42.3442C24.4961 40.938 24.5107 40.8501 24.7744 40.9819C24.9209 41.0698 25.624 41.2749 26.3271 41.4507ZM50.7021 47.0317C50.9804 47.2075 51.332 47.6177 51.4785 47.9253C51.7568 48.4966 51.7568 48.5845 51.2881 57.2271C51.039 62.0317 50.79 66.397 50.7461 66.9536L50.6582 67.9351H42.1621H33.6513L33.7539 67.4956C33.8857 66.7778 34.5303 65.562 35.0869 64.8882C35.8779 63.9653 36.5957 62.7056 36.9179 61.6509C37.3428 60.3179 37.3135 58.2231 36.874 56.9341C36.2148 55.0005 34.8232 53.2866 33.3584 52.5688C32.5674 52.188 32.1426 52.188 31.5273 52.5542C30.7217 53.0522 30.6191 53.521 30.6191 56.5825V59.3071L29.4179 59.2632L28.2021 59.2192L28.1289 56.2896C28.0849 54.3853 27.9971 53.2573 27.8799 53.0522C27.6162 52.5981 26.7226 52.2173 26.1367 52.3052C25.0381 52.481 23.3388 54.0483 22.5039 55.6304C20.9072 58.6626 21.3027 61.9585 23.6025 64.7271C24.2178 65.4741 24.8037 66.5435 25.0234 67.3931L25.1699 67.9351H16.6445H8.10447L8.01658 66.1479C7.92869 64.5952 7.8701 64.3169 7.59178 64.0239C7.13768 63.5259 6.27342 63.5552 5.87791 64.0825C5.58494 64.4341 5.57029 64.5806 5.65818 66.2065L5.76072 67.9351H4.42772H3.08006V66.7925C3.09471 63.4087 3.59275 60.5083 4.55955 58.1792C4.98436 57.1685 5.0576 57.0659 5.14549 57.3882C5.20408 57.5933 5.24803 58.2231 5.26268 58.8091C5.27732 60.0688 5.46775 60.5376 6.02439 60.7573C6.58104 60.9917 7.12303 60.8452 7.43064 60.3765C7.66502 60.0103 7.65037 59.6733 7.37205 54.3413C7.18162 50.8696 7.12303 48.5259 7.19627 48.2622C7.34275 47.7642 7.97264 47.0171 8.42674 46.8413C8.58787 46.7681 18.0508 46.7095 29.4619 46.7095L50.2041 46.6948L50.7021 47.0317ZM34.4131 57.0952C34.75 57.7983 34.7939 58.0913 34.7939 59.3657C34.7939 60.6694 34.75 60.9185 34.3984 61.6362C34.1787 62.0757 33.6953 62.8081 33.3437 63.2476C32.4502 64.3169 31.8349 65.5034 31.5127 66.7925L31.2344 67.8618L29.4179 67.9058L27.6162 67.9497L27.3525 66.9536C26.9863 65.5474 26.5469 64.6685 25.5068 63.2915C24.1885 61.5483 23.9687 60.9624 23.9541 59.3657C23.9541 58.1646 23.998 57.9448 24.4228 57.0952C24.6865 56.5679 25.0967 55.9526 25.331 55.7183L25.7851 55.2788V57.3296C25.7851 59.7905 25.9023 60.2739 26.664 60.9624C27.4111 61.6216 27.6015 61.6655 29.6963 61.6069C31.2344 61.563 31.4834 61.519 31.9082 61.2261C32.8164 60.5815 32.9629 60.0396 32.9629 57.4321L32.9775 55.1177L33.5049 55.7036C33.7832 56.0259 34.1933 56.6558 34.4131 57.0952ZM54.5254 58.9263C55.3017 61.0063 55.5361 62.3687 55.624 65.2544L55.7119 67.9351H54.3642H53.0166L53.1045 66.8071C53.1924 65.5327 53.6172 58.0034 53.6172 57.3149L53.6318 56.8755L53.8662 57.3149C53.998 57.5493 54.291 58.2817 54.5254 58.9263ZM55.873 70.4399C56.2978 70.645 56.6201 71.3042 56.4736 71.7437C56.415 71.9048 56.2392 72.1831 56.0635 72.3296C55.7705 72.6226 55.4043 72.6226 29.4326 72.6226H3.124L2.7285 72.3149C2.2158 71.9048 2.20115 71.1431 2.71385 70.645L3.06541 70.2788H29.2861C48.4609 70.2788 55.6094 70.3228 55.873 70.4399Z" fill="white"/>
<path d="M53.1924 5.63544C53.0312 5.78192 52.8408 6.10419 52.7969 6.36786C52.7236 6.76337 52.7822 6.90985 53.1631 7.30536C53.6172 7.74481 53.6611 7.75946 54.6719 7.70087C55.5361 7.65692 55.7412 7.58368 55.9756 7.30536C56.3564 6.83661 56.3271 6.10419 55.917 5.70868C55.6387 5.44501 55.4043 5.38641 54.54 5.38641C53.7637 5.38641 53.4267 5.44501 53.1924 5.63544Z" fill="white"/>
<path d="M58.5976 5.6792C58.1142 6.1626 58.1582 6.92432 58.6855 7.39307C59.0517 7.72998 59.0664 7.72998 64.1054 7.72998C69.8183 7.72998 69.9355 7.71533 70.1113 6.76318C70.1845 6.36768 70.1406 6.14795 69.9209 5.85498L69.6279 5.45947L64.2666 5.41553C59.0517 5.38623 58.8906 5.38623 58.5976 5.6792Z" fill="white"/>
<path d="M53.3096 10.6597C53.1777 10.7329 52.9873 10.9966 52.8847 11.2456C52.665 11.7583 52.8847 12.4761 53.3388 12.7104C53.5 12.7983 56.7373 12.8569 61.5273 12.8569H69.4521L69.8037 12.4907C70.2871 12.022 70.2871 11.3481 69.8037 10.8794L69.4521 10.5132H61.498C56.7666 10.5132 53.4414 10.5718 53.3096 10.6597Z" fill="white"/>
</svg>
