<svg width="73" height="51" viewBox="0 0 73 51" fill="none" xmlns="http://www.w3.org/2000/svg">
<path d="M7.08984 0.27832C6.22559 0.673828 5.49316 1.37695 5.06836 2.22656L4.6875 2.98828V12.627V22.2656H3.85254C2.37305 22.2803 1.06934 23.1152 0.380859 24.4922L0 25.2539V36.3281V47.4023L0.380859 48.1641C0.805664 49.0137 1.53809 49.7168 2.40234 50.1123C2.95898 50.3613 3.48633 50.3906 9.375 50.3906C15.2637 50.3906 15.791 50.3613 16.3477 50.1123C17.2119 49.7168 17.9443 49.0137 18.3691 48.1641C18.7354 47.4316 18.75 47.2998 18.75 44.7949V42.1875H23.8037C26.5869 42.1875 28.8574 42.2314 28.8574 42.29C28.8574 42.3633 28.7256 42.8613 28.5938 43.4326L28.3301 44.458L26.6748 44.5312C25.2539 44.5898 24.9902 44.6484 24.8145 44.8828C24.6533 45.1025 24.6094 45.7178 24.6094 47.4902C24.6094 49.6143 24.6387 49.834 24.9023 50.0977C25.1953 50.3906 25.3857 50.3906 36.3281 50.3906C47.2705 50.3906 47.4609 50.3906 47.7539 50.0977C48.0176 49.834 48.0469 49.6143 48.0469 47.4902C48.0469 45.7178 48.0029 45.1025 47.8418 44.8828C47.666 44.6484 47.4023 44.5898 45.9814 44.5312L44.3262 44.458L44.0625 43.4326C43.9307 42.8613 43.7988 42.3633 43.7988 42.29C43.7988 42.2314 45.0146 42.1875 46.5088 42.1875H49.2188V44.7949C49.2188 47.2998 49.2334 47.4316 49.5996 48.1641C50.0244 49.0137 50.7568 49.7168 51.6211 50.1123C52.1777 50.3613 52.7783 50.3906 60.9375 50.3906C69.0967 50.3906 69.6973 50.3613 70.2539 50.1123C71.1182 49.7168 71.8506 49.0137 72.2754 48.1641L72.6562 47.4023V32.8271C72.6562 18.9551 72.6416 18.208 72.3779 17.6367C71.7188 16.1865 70.3125 15.2344 68.8184 15.2344H67.9688V9.11133C67.9688 3.48633 67.9395 2.95898 67.6904 2.40234C67.2949 1.53809 66.5918 0.805664 65.7422 0.380859L64.9805 0H36.3428C8.80371 0 7.66113 0.0146484 7.08984 0.27832ZM64.6436 2.68066C65.5664 3.28125 65.5518 3.16406 65.5957 9.47754L65.6396 15.2344H58.916H52.207L51.4453 15.6152C50.5957 16.04 49.8926 16.7725 49.4971 17.6367C49.248 18.1934 49.2188 18.75 49.2188 25.5176V32.8125H33.9844H18.75V29.0332C18.75 25.6934 18.7061 25.1953 18.4717 24.668C18.0762 23.8037 17.373 23.0713 16.5234 22.6465L15.7617 22.2656H11.3965H7.03125V13.2861C7.03125 7.80762 7.08984 4.11621 7.17773 3.79395C7.35352 3.19336 7.83691 2.68066 8.4375 2.49023C8.67188 2.41699 21.2402 2.37305 36.5479 2.3877C62.7393 2.41699 64.2627 2.43164 64.6436 2.68066ZM56.9678 19.0576C57.2314 19.8779 57.583 20.6689 57.7295 20.8154C57.9785 21.0645 58.2568 21.0938 60.9375 21.0938C63.6182 21.0938 63.8965 21.0645 64.1455 20.8154C64.292 20.6689 64.6436 19.8633 64.9072 19.043L65.4053 17.5488L67.1631 17.6074C69.082 17.6514 69.4775 17.7832 69.9756 18.5596C70.2246 18.9258 70.2393 19.8193 70.2393 32.8125C70.2393 45.8057 70.2246 46.6992 69.9756 47.0654C69.3604 48.0176 69.7559 47.9736 60.9375 47.9736C52.1338 47.9736 52.5146 48.0176 51.8994 47.0654C51.6504 46.6992 51.6357 45.7764 51.5918 33.3252C51.5625 26.001 51.5918 19.7168 51.6357 19.3799C51.7383 18.6182 52.2949 17.915 52.9248 17.7393C53.1885 17.666 54.082 17.5928 54.9316 17.5928L56.4844 17.5781L56.9678 19.0576ZM62.6367 17.8125C62.5928 17.9443 62.5049 18.208 62.4609 18.3984C62.373 18.7354 62.3291 18.75 60.9375 18.75C59.5459 18.75 59.502 18.7354 59.4141 18.3984C59.3701 18.208 59.2822 17.9443 59.2383 17.8125C59.165 17.6074 59.3555 17.5781 60.9375 17.5781C62.5195 17.5781 62.71 17.6074 62.6367 17.8125ZM5.40527 26.0889C5.66895 26.9092 6.02051 27.7002 6.16699 27.8467C6.41602 28.0957 6.69434 28.125 9.375 28.125C12.0557 28.125 12.334 28.0957 12.583 27.8467C12.7295 27.7002 13.0811 26.8945 13.3447 26.0742L13.8428 24.5801L14.4873 24.668C15.249 24.7705 15.7178 25.0488 16.0693 25.5908C16.3184 25.957 16.333 26.6895 16.333 36.3281C16.333 45.9668 16.3184 46.6992 16.0693 47.0654C15.4688 47.9883 15.5859 47.9736 9.375 47.9736C3.16406 47.9736 3.28125 47.9883 2.68066 47.0654C2.43164 46.6992 2.41699 45.9375 2.37305 36.8408C2.34375 31.4502 2.37305 26.748 2.41699 26.4111C2.57812 25.3418 3.38379 24.668 4.54102 24.624C4.89258 24.6094 4.95117 24.7266 5.40527 26.0889ZM11.0742 24.8438C11.0303 24.9756 10.9424 25.2393 10.8984 25.4297C10.8105 25.7666 10.7666 25.7812 9.375 25.7812C7.9834 25.7812 7.93945 25.7666 7.85156 25.4297C7.80762 25.2393 7.71973 24.9756 7.67578 24.8438C7.60254 24.6387 7.79297 24.6094 9.375 24.6094C10.957 24.6094 11.1475 24.6387 11.0742 24.8438ZM49.2188 37.5V39.8438H33.9844H18.75V37.5V35.1562H33.9844H49.2188V37.5ZM41.4844 43.2861C41.6162 43.8428 41.748 44.3555 41.748 44.4141C41.748 44.4873 39.3164 44.5312 36.3281 44.5312C33.3545 44.5312 30.9082 44.4873 30.9082 44.4434C30.9082 44.3408 31.333 42.6416 31.4209 42.3633C31.4795 42.2168 32.5342 42.1875 36.3574 42.2168L41.2207 42.2607L41.4844 43.2861ZM45.7031 47.4609V48.0469H36.3281H26.9531V47.4609V46.875H36.3281H45.7031V47.4609Z" fill="white"/>
<path d="M57.7148 44.8242C57.5244 45.0146 57.4219 45.3076 57.4219 45.7031C57.4219 46.0986 57.5244 46.3916 57.7148 46.582C57.9932 46.8604 58.1982 46.875 60.9375 46.875C63.6768 46.875 63.8818 46.8604 64.1602 46.582C64.3506 46.3916 64.4531 46.0986 64.4531 45.7031C64.4531 45.3076 64.3506 45.0146 64.1602 44.8242C63.8818 44.5459 63.6768 44.5312 60.9375 44.5312C58.1982 44.5312 57.9932 44.5459 57.7148 44.8242Z" fill="white"/>
<path d="M6.15234 44.8242C5.96191 45.0146 5.85938 45.3076 5.85938 45.7031C5.85938 46.0986 5.96191 46.3916 6.15234 46.582C6.43066 46.8604 6.63574 46.875 9.375 46.875C12.1143 46.875 12.3193 46.8604 12.5977 46.582C12.7881 46.3916 12.8906 46.0986 12.8906 45.7031C12.8906 45.3076 12.7881 45.0146 12.5977 44.8242C12.3193 44.5459 12.1143 44.5312 9.375 44.5312C6.63574 44.5312 6.43066 44.5459 6.15234 44.8242Z" fill="white"/>
<path d="M34.2773 36.6211C34.0869 36.8115 33.9844 37.1045 33.9844 37.5C33.9844 38.5254 34.2773 38.6719 36.3281 38.6719C38.3789 38.6719 38.6719 38.5254 38.6719 37.5C38.6719 36.4746 38.3789 36.3281 36.3281 36.3281C34.7607 36.3281 34.541 36.3574 34.2773 36.6211Z" fill="white"/>
</svg>
