<svg width="27" height="38" viewBox="0 0 27 38" fill="none" xmlns="http://www.w3.org/2000/svg">
<g clip-path="url(#clip0_1058_1706)">
<path d="M26.1093 7.69873L23.7489 34.3838L13.1387 37.3522L2.55768 34.3879L0.199707 7.69873H26.1093Z" fill="#E44D26"/>
<path d="M13.1545 35.0832L21.7281 32.6845L23.7452 9.88086H13.1545V35.0832Z" fill="#F16529"/>
<path d="M8.56595 16.4276H13.1545V13.1543H5.02112L5.09871 14.0325L5.89598 23.0529H13.1545V19.7796H8.86241L8.56595 16.4276ZM9.297 24.6896H6.04091L6.4953 29.8292L13.1396 31.6905L13.1545 31.6864V28.2807L13.1403 28.2845L9.52795 27.3002L9.297 24.6896Z" fill="#EBEBEB"/>
<path d="M2.61035 0.445801H4.25871V2.08928H5.76661V0.445801H7.41507V5.42266H5.76671V3.75612H4.25881V5.42266H2.61045L2.61035 0.445801ZM9.58262 2.09625H8.13169V0.445801H12.6831V2.09625H11.2313V5.42266H9.58292V2.09625H9.58262ZM13.4054 0.445801H15.1242L16.1814 2.19454L17.2377 0.445801H18.9571V5.42266H17.3155V2.95586L16.1814 4.7254H16.153L15.0182 2.95586V5.42266H13.4054V0.445801ZM19.7775 0.445801H21.4263V3.77765H23.7444V5.42266H19.7774V0.445801H19.7775Z" fill="black"/>
<path d="M13.1434 23.0529H17.1375L16.7609 27.2981L13.1432 28.2835V31.6889L19.7929 29.8292L19.8416 29.2761L20.6039 20.6585L20.683 19.7796H13.1434V23.0529ZM13.1434 16.4196V16.4276H20.9782L21.0432 15.6919L21.1911 14.0325L21.2686 13.1543H13.1434V16.4196Z" fill="white"/>
</g>
<defs>
<clipPath id="clip0_1058_1706">
<rect width="26" height="37" fill="white" transform="translate(0.154541 0.445801)"/>
</clipPath>
</defs>
</svg>
