<svg width="31" height="31" viewBox="0 0 31 31" fill="none" xmlns="http://www.w3.org/2000/svg">
<path d="M30.6377 7.47081C30.6488 7.5107 30.6545 7.55184 30.6545 7.5932V14.0214C30.6545 14.1893 30.562 14.3444 30.4116 14.428L24.8479 17.5345V23.6913C24.8479 23.7737 24.8256 23.8546 24.7832 23.926C24.7408 23.9974 24.6798 24.0567 24.6063 24.098L12.992 30.5813C12.9654 30.5958 12.9365 30.6051 12.9074 30.6152C12.8965 30.6187 12.8863 30.6251 12.8749 30.6281C12.7937 30.6488 12.7083 30.6488 12.6271 30.6281C12.6138 30.6247 12.6017 30.6175 12.589 30.6129C12.5624 30.6034 12.5347 30.5952 12.5093 30.5813L0.897471 24.0979C0.823683 24.0568 0.76237 23.9976 0.719718 23.9262C0.677067 23.8548 0.654585 23.7738 0.654541 23.6913V4.40672C0.654541 4.36445 0.660635 4.32343 0.671416 4.28365C0.675049 4.27013 0.683486 4.25786 0.688408 4.24434C0.697432 4.21979 0.705986 4.19456 0.719229 4.17172C0.728252 4.15649 0.741494 4.14422 0.752393 4.13013C0.766338 4.11138 0.778994 4.09206 0.795283 4.07559C0.809229 4.06218 0.827393 4.05218 0.843096 4.04047C0.860674 4.02638 0.87626 4.01115 0.896182 4.00002H0.896768L6.70294 0.758426C6.77646 0.717396 6.85981 0.695801 6.94464 0.695801C7.02947 0.695801 7.11281 0.717396 7.18634 0.758426L12.9925 4.00002H12.9937C13.013 4.01184 13.0294 4.02638 13.0469 4.0399C13.0626 4.05161 13.0802 4.06218 13.094 4.07513C13.111 4.09206 13.1231 4.11149 13.1375 4.13013C13.1478 4.14422 13.1617 4.15649 13.1702 4.17172C13.184 4.19513 13.1918 4.21979 13.2016 4.24445C13.2064 4.25786 13.2148 4.27013 13.2184 4.28422C13.2296 4.32411 13.2353 4.36536 13.2354 4.40672V16.4515L18.0736 13.75V7.59263C18.0736 7.55172 18.0797 7.51002 18.0906 7.47081C18.0949 7.45672 18.1027 7.44445 18.1075 7.43104C18.1172 7.40638 18.1257 7.38104 18.1389 7.35831C18.1479 7.34309 18.1612 7.33081 18.1716 7.31672C18.186 7.29797 18.1981 7.27865 18.215 7.26218C18.229 7.24877 18.2465 7.23877 18.2622 7.22706C18.2804 7.21297 18.2961 7.19774 18.3154 7.18661H18.316L24.1227 3.94502C24.1962 3.90393 24.2796 3.8823 24.3644 3.8823C24.4493 3.8823 24.5326 3.90393 24.6061 3.94502L30.4123 7.18661C30.4328 7.19831 30.4485 7.21297 30.4667 7.22638C30.4817 7.2382 30.4993 7.24877 30.5132 7.26161C30.5301 7.27865 30.5422 7.29797 30.5566 7.31672C30.5676 7.33081 30.5808 7.34309 30.5894 7.35831C30.6032 7.38104 30.6111 7.40638 30.6207 7.43104C30.6262 7.44445 30.634 7.45672 30.6377 7.47081ZM29.6867 13.7501V8.40468L27.6548 9.53888L24.8478 11.1062V16.4516L29.6873 13.7501H29.6867ZM23.8805 23.42V18.0708L21.1193 19.6L13.2349 23.9637V29.363L23.8805 23.4198V23.42ZM1.62239 5.21809V23.42L12.2669 29.3625V23.9642L6.7061 20.9124L6.70435 20.9113L6.702 20.9101C6.68325 20.8996 6.66743 20.8843 6.64997 20.8715C6.63474 20.8597 6.61728 20.8504 6.60403 20.8374L6.60286 20.8357C6.58716 20.821 6.57626 20.8029 6.56302 20.7865C6.55083 20.7706 6.53642 20.7572 6.52669 20.7408L6.5261 20.739C6.5152 20.7215 6.50853 20.7004 6.50067 20.6805C6.49282 20.6629 6.48263 20.6464 6.47771 20.6277V20.6272C6.47173 20.6049 6.47056 20.5814 6.4681 20.5585C6.46575 20.541 6.46083 20.5234 6.46083 20.5058V7.91968L3.65431 6.35172L1.62239 5.21877V5.21809ZM6.94528 1.70638L2.10755 4.40672L6.94411 7.10695L11.7811 4.40604L6.94411 1.70638H6.94528ZM9.46106 18.5584L12.2675 16.9918V5.21809L10.2358 6.3524L7.42856 7.91956V19.6932L9.46106 18.5584ZM24.3644 4.89297L19.5274 7.5932L24.3644 10.2935L29.2008 7.59263L24.3644 4.89297ZM23.8804 11.1062L21.0734 9.53888L19.0416 8.40468V13.7501L21.848 15.3168L23.8805 16.4516V11.1062H23.8804ZM12.7503 23.1523L19.8452 19.2246L23.3917 17.2618L18.5582 14.5633L12.9931 17.6701L7.92099 20.5017L12.7503 23.1523Z" fill="#FF2D20"/>
</svg>
