<svg width="58" height="60" viewBox="0 0 58 60" fill="none" xmlns="http://www.w3.org/2000/svg">
<path d="M23.8555 1.24219C23.6562 1.5 23.6094 1.72266 23.6094 2.53125V3.51562H21.4414C19.2852 3.51562 19.2617 3.51562 18.9805 3.80859C18.6992 4.07812 18.6875 4.16016 18.6875 5.56641V7.03125H17.4102C16.3086 7.03125 16.0977 7.06641 15.8281 7.27734L15.5234 7.51172V11.0273V14.5312H9.38281C3.51172 14.5312 3.23047 14.543 2.97266 14.7539L2.69141 14.9766L2.63281 29.9648L2.57422 44.9648L2.19922 45.3867C1.20312 46.5234 0.335937 48.5625 0.207031 50.0391C0.148437 50.7891 0.160156 50.8594 0.441406 51.1406L0.746093 51.4453H8.01172H15.2773L15.5703 51.7383L15.8633 52.0312H24.5938H33.3125L33.6641 51.7383L34.0156 51.4453H37.5312H41.0586L41.1406 51.8438C41.2227 52.3125 41.4102 52.5 42.0547 52.8047C42.418 52.9805 42.5703 53.1445 42.7461 53.5898C42.9688 54.1289 42.9688 54.1758 42.793 54.5625C42.4062 55.3594 42.5 55.6055 43.5664 56.6836C44.6445 57.75 44.8906 57.8438 45.6875 57.457C46.0742 57.2812 46.1211 57.2812 46.6602 57.5039C47.1055 57.6797 47.2695 57.832 47.4453 58.1953C47.8438 59.0625 47.8555 59.0625 49.5078 59.0625C51.1719 59.0625 51.207 59.0508 51.5469 58.1836C51.7109 57.7852 51.8281 57.6797 52.3203 57.5039C52.8477 57.3164 52.9297 57.3164 53.3281 57.4805C54.1719 57.832 54.3828 57.75 55.4492 56.6836C56.5039 55.6172 56.5742 55.4414 56.2344 54.6328C56.0703 54.2344 56.0703 54.1523 56.2578 53.5898C56.4336 53.0742 56.5273 52.9453 56.8438 52.8516C57.0547 52.7812 57.3594 52.6172 57.5234 52.4883C57.8164 52.2539 57.8281 52.2188 57.8281 50.8125C57.8281 49.1719 57.7578 49.0078 56.9727 48.7031C56.5156 48.5273 56.4336 48.4453 56.2461 47.8945C56.0586 47.3203 56.0469 47.25 56.2344 46.9102C56.5977 46.1953 56.4805 45.8555 55.4961 44.8477C54.5 43.8164 54.0664 43.6406 53.3398 44.0156C53 44.2031 52.9297 44.1914 52.3555 44.0039C51.8047 43.8164 51.7227 43.7344 51.5469 43.2773C51.2422 42.4922 51.0781 42.4219 49.4375 42.4219C48.0313 42.4219 47.9961 42.4336 47.7617 42.7266C47.6328 42.8906 47.4688 43.1953 47.4102 43.3945C47.3047 43.6992 47.1758 43.8164 46.707 43.9805C46.3906 44.0859 46.1094 44.1797 46.0625 44.1797C46.0273 44.1797 45.9922 37.3242 45.9922 28.9453V13.6992L45.6992 13.418C45.5469 13.2539 45.2773 13.125 45.1016 13.125C44.9258 13.125 42.3477 14.1797 39.3828 15.4805C36.4062 16.7812 33.9102 17.8594 33.8398 17.8945C33.7227 17.9414 33.6875 16.8633 33.6875 12.7383V7.51172L33.3828 7.27734C33.1133 7.06641 32.9023 7.03125 31.8008 7.03125H30.5234V5.56641C30.5234 4.16016 30.5117 4.07812 30.2305 3.80859C29.9492 3.51562 29.9258 3.51562 27.7695 3.51562H25.6016V2.53125C25.6016 1.27734 25.3906 0.9375 24.6055 0.9375C24.1953 0.9375 24.043 0.996094 23.8555 1.24219ZM28.5312 6.26953V7.03125H24.6055H20.6797V6.26953V5.50781H24.6055H28.5312V6.26953ZM31.6953 27.3164V45.6094L30.9688 44.9414C30.2539 44.2969 28.9883 43.4766 28.4492 43.3125C28.1914 43.2305 28.2031 43.207 28.6719 42.6211C30.3945 40.4531 30.2539 37.4414 28.332 35.5195C25.7656 32.9648 21.4414 33.7148 19.8828 36.9961C19.0039 38.8594 19.3203 41.2031 20.6445 42.668C20.8789 42.9258 21.043 43.1484 21.0195 43.1719C20.9961 43.1953 20.6445 43.3711 20.2578 43.5703C19.4961 43.957 17.8438 45.1992 17.6445 45.5508C17.5625 45.7031 17.5273 40.2422 17.5156 27.3867V9.02344H24.6055H31.6953V27.3164ZM44 25.6055V35.5078L43.5781 35.0391C43.3438 34.7812 42.8633 34.3945 42.5234 34.1836L41.8906 33.8086V30.8672C41.8906 28.0664 41.8789 27.9023 41.6445 27.6094C41.457 27.3633 41.3047 27.3047 40.8945 27.3047C40.4844 27.3047 40.332 27.3633 40.1445 27.6094C39.9102 27.9023 39.8984 28.0664 39.8984 30.6562V33.3984H39.5117C39.3008 33.3984 38.8555 33.4688 38.5156 33.5625L37.9062 33.7148V30.9961C37.9062 28.1953 37.8359 27.6328 37.4375 27.4219C37.0625 27.2227 36.4062 27.2812 36.1484 27.5391C35.9258 27.7617 35.9141 27.9258 35.9141 31.3828V34.9805L35.5156 35.543C34.8711 36.457 34.6016 37.207 34.5312 38.332C34.4492 39.8438 34.9531 41.3086 35.8672 42.1992L36.2539 42.5742L35.6562 42.8555C35.3164 43.0078 34.8125 43.3008 34.5195 43.5117C34.2266 43.7227 33.9102 43.9336 33.8281 43.9922C33.7109 44.0625 33.6875 41.6836 33.7109 32.1094L33.7461 20.1328L38.7852 17.9297C41.5625 16.7109 43.8594 15.7148 43.918 15.7148C43.9648 15.7031 44 20.1562 44 25.6055ZM15.5234 30.293V44.0508L14.9023 43.6172C14.5625 43.3828 14.0117 43.0547 13.6836 42.9023L13.0859 42.6211L13.5547 42.0234C15.6289 39.4102 14.9023 35.5547 12.043 34.0781C10.7422 33.3984 9.51172 33.2344 8.19922 33.5742C6.82812 33.9375 5.66797 34.8047 4.98828 36L4.625 36.6211V26.5664V16.5234H10.0742H15.5234V30.293ZM10.6484 35.6367C11.4805 35.9414 12.3711 36.8789 12.6055 37.6992C13.0508 39.2578 12.3828 40.8164 10.9297 41.5547C10.0977 41.9766 8.86719 41.9531 8.01172 41.5078C6.04297 40.4766 5.67969 37.957 7.26172 36.3633C8.21094 35.4141 9.39453 35.1562 10.6484 35.6367ZM40.8711 35.625C43.1094 36.4688 43.6953 39.3867 41.9492 41.0039C40.3086 42.5156 37.918 42.0938 36.8867 40.0898C36.1953 38.7773 36.418 37.4414 37.4961 36.3633C38.4453 35.4258 39.6289 35.1562 40.8711 35.625ZM26.0117 36.3047C28.4492 37.5469 28.4727 40.8984 26.0703 42.1289C24.4531 42.9492 22.625 42.3398 21.7695 40.6758C21.3242 39.8203 21.2656 39.0586 21.582 38.1328C21.8281 37.4062 22.7656 36.4336 23.4922 36.1758C24.1953 35.918 25.3789 35.9766 26.0117 36.3047ZM5.62109 42.1875L6.00781 42.5977L5.31641 42.9141L4.625 43.2305V41.9766V40.7227L4.92969 41.25C5.09375 41.543 5.39844 41.9648 5.62109 42.1875ZM43.9648 42.8438C43.9414 42.8789 43.7773 42.832 43.6133 42.7617L43.3086 42.6211L43.625 42.2344L43.9414 41.8359L43.9766 42.3164C44 42.5859 43.9883 42.8203 43.9648 42.8438ZM11.1875 44.1328C12.5117 44.4375 13.6016 45.0586 14.6562 46.1133C15.1719 46.6289 15.6992 47.2383 15.8281 47.4609L16.0742 47.8711L15.7812 48.668L15.4883 49.4531H8.94922C2.90234 49.4531 2.39844 49.4414 2.39844 49.2539C2.39844 49.1484 2.60937 48.6328 2.85547 48.1055C3.82812 46.1133 5.90234 44.4961 8.05859 44.0625C8.86719 43.9102 10.3789 43.9336 11.1875 44.1328ZM41.375 44.1211C41.7734 44.2148 42.3945 44.4258 42.7695 44.5898L43.4375 44.8828L43.0156 45.3516C42.5352 45.8789 42.4766 46.3125 42.7812 46.8984C42.957 47.2383 42.957 47.3086 42.7578 47.8945C42.5703 48.457 42.4883 48.5391 42.0312 48.7148C41.7617 48.8203 41.4336 49.0312 41.3164 49.1836L41.0938 49.4531H37.4141H33.7461L33.4648 48.6445L33.1953 47.8359L33.6289 47.1797C34.625 45.668 36.6992 44.332 38.4922 44.0273C39.1719 43.9102 40.707 43.957 41.375 44.1211ZM50.0352 44.9062C50.1992 45.2695 50.375 45.4453 50.6211 45.5156C50.8203 45.5742 51.3828 45.8086 51.875 46.0195C52.7539 46.4062 52.7773 46.4062 53.2813 46.2422C53.7383 46.0781 53.7969 46.0781 53.9844 46.2656C54.1719 46.4531 54.1719 46.5117 54.0078 46.9688C53.8438 47.4727 53.8438 47.4961 54.2305 48.375C54.4414 48.8672 54.6758 49.4297 54.7344 49.6289C54.8047 49.875 54.9805 50.0508 55.3438 50.2148C55.7422 50.4023 55.8359 50.5078 55.8359 50.7539C55.8359 50.9883 55.7539 51.1055 55.4727 51.2109C55.0508 51.3984 54.6641 51.7734 54.6641 52.0078C54.6641 52.1016 54.4766 52.5938 54.2539 53.0859C53.8438 53.9883 53.8438 54.0117 54.0078 54.5156C54.1719 54.9844 54.1719 55.0312 53.9727 55.2305C53.8086 55.4062 53.7031 55.418 53.4453 55.3125C52.9297 55.1133 52.5078 55.1719 51.6641 55.5586C51.2188 55.7578 50.6914 55.9922 50.4805 56.0742C50.1992 56.2031 50.0703 56.3555 49.9648 56.7188C49.8477 57.1055 49.7773 57.1875 49.5195 57.1875C49.2734 57.1875 49.1797 57.0938 49.0039 56.6719C48.8047 56.1797 48.7344 56.1211 47.9492 55.8281C47.4805 55.6523 47 55.4414 46.8711 55.3477C46.5898 55.1602 45.8281 55.1484 45.5 55.3242C45.3008 55.4297 45.2188 55.4062 45.0312 55.2188C44.8438 55.0312 44.8203 54.9492 44.9258 54.75C45.1016 54.4219 45.0898 53.6602 44.9023 53.3789C44.8086 53.25 44.5977 52.7695 44.4219 52.3008C44.1289 51.5156 44.0703 51.4453 43.5781 51.2461C43.1562 51.0703 43.0625 50.9766 43.0625 50.7305C43.0625 50.4727 43.1445 50.4023 43.5312 50.2852C43.8945 50.1797 44.0469 50.0508 44.1758 49.7695C44.2578 49.5586 44.4922 49.0312 44.6914 48.5859C45.0781 47.7422 45.1367 47.3203 44.9375 46.8047C44.832 46.5469 44.8438 46.4414 45.0195 46.2773C45.2188 46.0781 45.2656 46.0781 45.7344 46.2422C46.2383 46.4062 46.2617 46.4062 47.1641 45.9961C47.6562 45.7734 48.1484 45.5859 48.2422 45.5859C48.4766 45.5859 48.8516 45.1992 49.0391 44.7773C49.1445 44.4961 49.2617 44.4141 49.4961 44.4141C49.7422 44.4141 49.8477 44.5078 50.0352 44.9062ZM26.4453 44.7539C28.625 45.3164 30.4414 46.8164 31.3438 48.8086C31.5195 49.1953 31.707 49.6289 31.7422 49.7695L31.8242 50.0391H24.6758C18.0547 50.0391 17.5156 50.0273 17.5156 49.8398C17.5156 49.7344 17.7266 49.2188 17.9727 48.7031C19.5078 45.5508 23.0586 43.8867 26.4453 44.7539Z" fill="#FE4A23"/>
<path d="M18.9453 11.168C18.6992 11.4258 18.6875 11.543 18.6875 13.6641C18.6992 16.0547 18.7227 16.1719 19.3203 16.4062C19.7539 16.5703 29.457 16.5703 29.8906 16.4062C30.4883 16.1719 30.5117 16.0547 30.5234 13.6406C30.5234 11.4609 30.5234 11.4023 30.2539 11.1562C29.9844 10.8984 29.9609 10.8984 24.5938 10.8984H19.1914L18.9453 11.168ZM28.5312 13.6523V14.5312H24.6055H20.6797V13.6523V12.7734H24.6055H28.5312V13.6523Z" fill="#FE4A23"/>
<path d="M18.9453 19.4882C18.6992 19.746 18.6875 19.8632 18.6875 22.078C18.6875 25.1718 18.4883 24.9608 21.4297 24.9608C23.7383 24.9608 24.0781 24.8905 24.3008 24.41C24.3828 24.2343 24.4297 23.2968 24.4297 21.9608C24.4297 19.0194 24.6406 19.2186 21.5234 19.2186C19.2383 19.2186 19.1914 19.2186 18.9453 19.4882ZM22.4375 22.0897V22.9686H21.5586H20.6797V22.0897V21.2108H21.5586H22.4375V22.0897Z" fill="#FE4A23"/>
<path d="M25.0742 19.5117C24.7812 19.7929 24.7812 19.8163 24.7812 21.9609C24.7812 24.2695 24.8516 24.6093 25.332 24.832C25.5078 24.914 26.4453 24.9609 27.7813 24.9609C30.7227 24.9609 30.5234 25.1718 30.5234 22.0546C30.5234 18.9843 30.7578 19.2187 27.6641 19.2187C25.3672 19.2187 25.3555 19.2187 25.0742 19.5117ZM28.5313 22.0898V22.9687H27.6523H26.7734V22.0898V21.2109H27.6523H28.5313V22.0898Z" fill="#FE4A23"/>
<path d="M18.9805 25.6055C18.6875 25.8868 18.6875 25.8985 18.6875 28.2188C18.6875 31.2891 18.4531 31.0547 21.5469 31.0547C24.6406 31.0547 24.4297 31.2539 24.4297 28.3125C24.4297 26.9766 24.3828 26.0391 24.3008 25.8633C24.0781 25.3829 23.7383 25.3125 21.4297 25.3125C19.2852 25.3125 19.2617 25.3125 18.9805 25.6055ZM22.4375 28.1836V29.0625H21.5586H20.6797V28.1836V27.3047H21.5586H22.4375V28.1836Z" fill="#FE4A23"/>
<path d="M25.2969 25.4532C24.8516 25.6642 24.7812 26.0392 24.7812 28.3126C24.7812 31.254 24.5703 31.0548 27.6875 31.0548C30.7578 31.0548 30.5234 31.2892 30.5234 28.1954C30.5234 25.1017 30.7227 25.3126 27.7461 25.3243C26.4805 25.3243 25.4375 25.3829 25.2969 25.4532ZM28.5312 28.1837V29.0626H27.6523H26.7734V28.1837V27.3048H27.6523H28.5312V28.1837Z" fill="#FE4A23"/>
<path d="M34.8945 20.2383C34.7422 20.2617 34.5195 20.4258 34.3906 20.5898C34.1797 20.8594 34.1562 21.0586 34.1562 22.7578C34.1562 24.5742 34.168 24.6211 34.4492 24.9023L34.7305 25.1953H38.8438C41.3047 25.1953 43.0508 25.1484 43.1797 25.0781C43.2969 25.0195 43.4492 24.7969 43.5195 24.5977C43.6836 24.1055 43.6836 21.3516 43.5195 20.8594C43.2852 20.1914 43.0508 20.1562 38.8789 20.168C36.8281 20.1797 35.0352 20.2148 34.8945 20.2383ZM41.6562 22.6758V23.2031H38.9023H36.1484V22.6758V22.1484H38.9023H41.6562V22.6758Z" fill="#FE4A23"/>
<path d="M7.49609 19.9806C7.20312 20.2618 7.20312 20.2736 7.20312 22.5587C7.20312 25.6407 6.99219 25.4298 10.0742 25.4298C13.1562 25.4298 12.9453 25.6407 12.9453 22.5587C12.9453 19.4767 13.1562 19.6876 10.0742 19.6876C7.78906 19.6876 7.77734 19.6876 7.49609 19.9806ZM10.9531 22.5587V23.4376H10.0742H9.19531V22.5587V21.6798H10.0742H10.9531V22.5587Z" fill="#FE4A23"/>
<path d="M7.73047 25.9103C7.22656 26.1915 7.20312 26.3204 7.20312 28.711C7.20312 31.8165 7.05078 31.6876 10.4141 31.6173L12.3828 31.5821L12.6641 31.254C12.9453 30.9259 12.9453 30.879 12.9453 28.711C12.9453 26.5431 12.9453 26.4962 12.6641 26.1681L12.3828 25.8399L10.168 25.8048C8.70312 25.7931 7.88281 25.8282 7.73047 25.9103ZM10.9531 28.711V29.6485H10.0742H9.19531V28.711V27.7735H10.0742H10.9531V28.711Z" fill="#FE4A23"/>
<path d="M48.043 46.5235C46.707 46.9688 45.7578 47.9297 45.2656 49.3125C44.9141 50.2969 45.0078 51.7383 45.4648 52.6875C45.8984 53.5664 46.6836 54.3516 47.5625 54.7852C48.5117 55.2539 49.9531 55.336 50.9492 54.9844C54.7227 53.6485 55.0039 48.4219 51.3828 46.7227C50.3867 46.2422 49.0977 46.1719 48.043 46.5235ZM50.4219 48.4688C51.3359 48.8438 51.9687 49.7696 51.9687 50.7422C51.9687 52.0664 50.832 53.2031 49.5078 53.2031C47.7969 53.2031 46.5781 51.3867 47.2344 49.8281C47.75 48.5742 49.2031 47.9531 50.4219 48.4688Z" fill="#FE4A23"/>
</svg>
