<svg width="60" height="54" viewBox="0 0 60 54" fill="none" xmlns="http://www.w3.org/2000/svg">
<path d="M3.36329 0.613281C2.63673 0.789062 2.05079 1.14062 1.48829 1.77344C0.503913 2.86328 0.585944 0.953125 0.585944 23.6875C0.585944 46.7266 0.480475 44.582 1.62891 45.7305C2.80079 46.8906 2.13282 46.8203 12.3399 46.8672L21.2109 46.9023V49.4688C21.2109 53.1602 21.1406 53.1367 24.7266 50.6523C26.1094 49.6914 27.3047 48.9414 27.3633 48.9883C28.3242 49.7031 32.4844 52.5156 32.5781 52.5156C32.6602 52.5156 32.8711 52.4102 33.0586 52.2695L33.3984 52.0352V49.457V46.8906H41.4609C45.9844 46.8906 49.8047 46.8438 50.1914 46.7734C51.4688 46.5742 52.3711 45.918 52.9922 44.7578L53.2617 44.2539L53.2969 35.5703L53.3203 26.8867L54.0117 26.3359C55.2422 25.375 56.3438 23.7812 56.8828 22.1875C57.5039 20.3711 57.5625 18.6133 57.0586 16.75L56.8008 15.8242L57.9961 14.6172C59.0859 13.5039 59.1797 13.375 59.1797 12.9531C59.1797 12.5312 59.0742 12.3906 57.8555 11.1133C56.1914 9.35547 56.25 9.36719 54.7852 10.7969C53.2617 12.2969 53.3438 12.4961 53.2969 7.28125L53.2617 3.12109L52.9453 2.52344C52.5703 1.82031 51.8555 1.14062 51.1055 0.789062L50.5664 0.542969L27.1875 0.519531C13.7695 0.519531 3.6211 0.554688 3.36329 0.613281ZM50.7422 2.125C51.2578 2.38281 51.7031 2.92188 51.9024 3.51953C52.0195 3.87109 52.1016 10.6797 51.9961 10.6797C51.9727 10.6797 51.5625 10.5508 51.082 10.3867C48.7383 9.58984 45.9609 9.78906 43.7109 10.9141C42.2578 11.6406 40.4883 13.3867 39.7617 14.8281C38.9063 16.5039 38.5547 18.4492 38.7656 20.2188C39.1758 23.4766 41.0039 26.0898 43.8867 27.4961C45.3867 28.2344 46.2656 28.4219 48.1055 28.4102C49.5703 28.4102 50.5313 28.2227 51.832 27.7305C52.0313 27.6484 52.0313 28.0352 52.0078 35.7109C51.9727 43.6445 51.9727 43.7969 51.7266 44.2539C51.5977 44.5117 51.2578 44.875 50.9883 45.0742L50.4844 45.4258L41.9414 45.4609L33.3984 45.4844V44.1484V42.8242L33.832 42.7539C35.0391 42.5547 36.5625 41.2656 37.0195 40.0352C37.1484 39.6836 37.3125 38.9336 37.3828 38.3711C37.5117 37.2461 37.7461 36.6836 38.4609 35.8867C38.7305 35.5938 39.082 35.0547 39.2461 34.7031C39.5156 34.1406 39.5508 33.9062 39.5508 32.8281C39.5508 31.3984 39.375 30.9297 38.4375 29.8047C37.6524 28.8555 37.5 28.4922 37.3711 27.2852C37.1484 25.1289 36.1055 23.7344 34.2422 23.1133C33.8438 22.9727 33.293 22.8672 33.0117 22.8672C32.1094 22.8672 31.3594 22.5625 30.4453 21.8125C29.2852 20.8516 28.5938 20.5938 27.2461 20.5938C25.9688 20.582 25.3477 20.8398 24.082 21.8594C23.2148 22.5625 22.4648 22.8672 21.6211 22.8672C20.5313 22.8672 19.1367 23.5117 18.3867 24.3672C17.7773 25.0586 17.3672 26.0781 17.2383 27.2148C17.0977 28.4922 16.9219 28.9023 16.1133 29.875C15.1992 30.9766 14.9648 31.6562 15.0234 33.0625C15.0703 34.3633 15.3633 35.1133 16.1602 36.0273C16.8984 36.8828 17.1094 37.3984 17.2383 38.6055C17.3789 40.0234 17.7891 40.8906 18.75 41.7695C19.418 42.3906 20.4258 42.9062 20.9766 42.9062C21.1992 42.9062 21.2109 42.9883 21.2109 44.1953V45.4844H12.4805C4.86329 45.4844 3.69141 45.4609 3.30469 45.3086C2.73048 45.0625 2.35548 44.6992 2.09766 44.1367C1.88673 43.6914 1.87501 42.8711 1.87501 23.6875C1.87501 4.50391 1.88673 3.68359 2.09766 3.23828C2.33204 2.72266 2.6836 2.37109 3.22266 2.08984C3.53907 1.91406 5.8711 1.90234 26.9297 1.89062C50.0156 1.89062 50.2852 1.89062 50.7422 2.125ZM49.9805 11.4531C50.7188 11.6172 52.6289 12.5312 52.6992 12.7305C52.7227 12.8008 51.6328 13.9609 50.2734 15.3086L47.8125 17.7695L46.5469 16.5039L45.2695 15.2266L44.918 15.4492C44.5195 15.6836 41.8359 18.4961 41.8359 18.6602C41.8359 18.8594 42.0586 19.0938 44.8945 21.9531C46.418 23.4883 47.7305 24.7422 47.8242 24.7422C47.918 24.7422 49.6992 23.0312 51.7852 20.9453C53.8828 18.8477 55.6289 17.1602 55.6758 17.1953C55.7227 17.2188 55.8164 17.6758 55.8984 18.2148C56.4024 21.8242 54.0586 25.5625 50.5313 26.7344C46.7461 27.9883 42.6563 26.2773 40.8867 22.6914C40.2656 21.4258 40.0664 20.582 40.0664 19.1758C40.0664 17.7578 40.2656 16.9375 40.9219 15.6016C41.3086 14.793 41.6016 14.4062 42.4102 13.6094C44.5078 11.5117 47.1094 10.7734 49.9805 11.4531ZM52.8516 17.8867L47.8711 22.8672L45.8555 20.8516L43.8281 18.8242L44.5313 18.1211L45.2344 17.418L46.5 18.6836C47.1914 19.375 47.8125 19.9375 47.8711 19.9375C47.9414 19.9375 49.8867 18.0391 52.207 15.7188L56.4258 11.5L57.1289 12.2031L57.832 12.9062L52.8516 17.8867ZM28.8047 22.3398C29.0625 22.5391 29.6016 22.9375 30 23.2422C30.7969 23.8516 31.9102 24.2734 32.7422 24.2734C33.6094 24.2734 34.4297 24.5898 35.0391 25.1641C35.7774 25.8555 36.0703 26.5117 36.1992 27.707C36.3164 28.8906 36.6563 29.7109 37.418 30.6484C38.1914 31.6211 38.3438 31.9375 38.4141 32.7812C38.4844 33.6602 38.168 34.4453 37.3828 35.3477C36.668 36.168 36.3281 37.0234 36.2109 38.2422C36.0586 39.8359 35.5781 40.7031 34.4649 41.3594C33.9844 41.6406 33.8203 41.6641 32.707 41.6758C31.2656 41.6758 30.8203 41.8398 29.7774 42.7305C28.9805 43.4102 28.3711 43.7266 27.6797 43.8086C26.8594 43.9023 26.2734 43.6914 25.0078 42.8477C23.6953 41.9688 23.0391 41.7344 21.8086 41.7344C19.8047 41.7227 18.6328 40.5625 18.4102 38.3711C18.2461 36.8242 18 36.25 16.9805 35.0781C16.3828 34.3984 16.125 33.5898 16.1953 32.6641C16.2656 31.8086 16.4648 31.3867 17.25 30.4375C18.0117 29.5234 18.2578 28.9258 18.3984 27.6602C18.5156 26.4414 18.7969 25.7617 19.3945 25.1523C20.0039 24.5547 20.7305 24.25 21.8555 24.1445C23.0977 24.0273 24 23.6758 24.8555 22.9609C25.8984 22.0938 26.3672 21.918 27.4453 21.9531C28.2305 21.9883 28.3945 22.0352 28.8047 22.3398ZM23.3438 43.4453C23.5078 43.5391 23.9063 43.832 24.2227 44.1016C25.418 45.1328 27.0469 45.5078 28.5469 45.0742C29.2734 44.875 30.1641 44.3594 30.5391 43.9492C30.7383 43.7383 31.7578 43.1406 31.9336 43.1406C31.9688 43.1406 31.9922 44.8047 31.9922 46.832C31.9922 48.8594 31.9688 50.5234 31.9336 50.5234C31.8984 50.5234 30.8906 49.832 29.6953 49C28.4531 48.1328 27.3984 47.4766 27.2461 47.4766C26.9649 47.4766 26.6719 47.6641 24.1758 49.4336C23.332 50.0312 22.6055 50.5234 22.5703 50.5234C22.5352 50.5234 22.5 48.8594 22.5 46.8203V43.1289L22.7695 43.2109C22.9102 43.2461 23.168 43.3633 23.3438 43.4453Z" fill="white" stroke="white"/>
<path d="M4.51171 3.46097C4.05468 3.66019 3.80859 3.94144 3.5039 4.63285C2.91796 5.95707 3.67968 7.293 5.17968 7.57425C5.99999 7.7266 7.14843 7.12894 7.45312 6.39066C7.65234 5.92191 7.66406 5.07816 7.48828 4.62113C7.32421 4.17582 6.82031 3.64847 6.36328 3.46097C5.88281 3.26175 4.96874 3.26175 4.51171 3.46097ZM5.83593 4.77347C6.24609 5.05472 6.37499 5.37113 6.21093 5.75785C6.02343 6.20316 5.53124 6.40238 5.12109 6.21488C4.53515 5.94535 4.51171 4.99613 5.07421 4.7266C5.43749 4.55082 5.53124 4.56254 5.83593 4.77347Z" fill="white" stroke="white"/>
<path d="M15.0586 3.48447C14.5313 3.754 14.2852 4.01181 14.0508 4.52744C13.2188 6.33213 14.918 8.10166 16.8047 7.43369C17.6133 7.14072 18.0703 6.55478 18.1406 5.71103C18.1641 5.35947 18.1641 4.93759 18.1172 4.77353C18.0235 4.39853 17.4024 3.68369 16.9805 3.46103C16.5469 3.23838 15.5039 3.25009 15.0586 3.48447ZM16.6758 4.94931C17.0742 5.4415 16.8047 6.13291 16.1485 6.29697C15.8906 6.35556 15.75 6.29697 15.457 6.004C15.1641 5.71103 15.1055 5.57041 15.1641 5.31259C15.3399 4.58603 16.1953 4.38681 16.6758 4.94931Z" fill="white" stroke="white"/>
<path d="M21.5625 3.42573C21.1875 3.57808 20.6484 4.08198 20.4375 4.49214C20.2266 4.9023 20.2266 6.0273 20.4492 6.44917C20.6836 6.91792 21.2578 7.37495 21.7969 7.51558C22.1016 7.59761 26.4375 7.63276 35.1914 7.60933L48.1172 7.57417L48.5977 7.25776C48.8555 7.0937 49.1484 6.76558 49.2539 6.54292C49.5 6.03901 49.5117 4.92573 49.2891 4.49214C49.0664 4.07026 48.5273 3.57808 48.1289 3.42573C47.6836 3.24995 21.9844 3.26167 21.5625 3.42573ZM47.8594 4.83198C48.2227 5.12495 48.2578 5.60542 47.9414 6.00386L47.7187 6.28511H34.8867C22.4297 6.28511 22.043 6.27339 21.8086 6.06245C21.4805 5.75776 21.4805 5.13667 21.8203 4.82026C22.0781 4.58589 22.1602 4.58589 34.8164 4.58589C47.5195 4.58589 47.543 4.58589 47.8594 4.83198Z" fill="white" stroke="white"/>
<path d="M9.75001 3.61328C8.29688 4.32812 8.20313 6.5664 9.59767 7.28125C11.1797 8.07812 12.8789 7.15234 12.8906 5.48828C12.8906 4.70312 12.2813 3.8125 11.5664 3.54296C11.0859 3.35546 10.1953 3.39062 9.75001 3.61328ZM11.168 4.82031C11.7422 5.27734 11.6719 5.95703 11.0156 6.22656C10.6875 6.36718 10.6172 6.35546 10.3359 6.14453C9.89063 5.8164 9.85548 5.26562 10.2422 4.8789C10.5938 4.52734 10.7695 4.51562 11.168 4.82031Z" fill="white" stroke="white"/>
<path d="M16.1484 9.76565C16.0313 9.84768 15.6211 10.5977 15.2227 11.4414C14.8242 12.2735 14.4844 12.9766 14.4844 12.9766C14.4727 12.9883 13.7109 13.1172 12.7734 13.2578C10.1602 13.6563 10.1016 13.8203 11.9531 15.6016L13.2539 16.8321L12.9375 18.5078C12.4453 21.0977 12.6094 21.2266 14.9063 19.9727C15.6914 19.5508 16.3945 19.1992 16.4648 19.1992C16.5234 19.1992 17.2266 19.5508 18.0117 19.9844C19.5469 20.8281 19.8867 20.8985 20.1211 20.4063C20.2266 20.1719 20.2031 19.8438 19.9688 18.6485C19.8164 17.8399 19.6875 17.1016 19.6875 16.9961C19.6875 16.8906 20.2383 16.2578 20.918 15.6016C21.5977 14.9336 22.1484 14.2891 22.1484 14.1836C22.1484 13.586 21.9844 13.5156 19.793 13.1992L18.4336 13L17.625 11.336C16.7813 9.62502 16.5938 9.42581 16.1484 9.76565ZM18.9844 14.336C19.6641 14.4414 20.2383 14.5352 20.2617 14.5352C20.2852 14.5469 19.9336 14.9336 19.4766 15.4141C19.0078 15.8946 18.6328 16.3516 18.6328 16.4336C18.6328 16.5274 18.7148 17.0899 18.8086 17.6992C18.9141 18.3086 18.9727 18.8242 18.9375 18.8477C18.9141 18.8711 18.4102 18.6602 17.8242 18.3672C17.2383 18.0742 16.6758 17.8281 16.582 17.8281C16.4883 17.8281 15.9258 18.0625 15.3516 18.3555C14.1445 18.9649 14.2031 19.0352 14.4727 17.418L14.6367 16.3633L13.7461 15.4727L12.8672 14.5703L13.1953 14.5C13.3828 14.4649 13.875 14.3828 14.2969 14.3008C14.707 14.2305 15.1523 14.125 15.2578 14.0664C15.375 13.9961 15.7148 13.4688 16.0078 12.8828L16.5469 11.8047L17.1563 12.9649L17.7539 14.1367L18.9844 14.336Z" fill="white" stroke="white"/>
<path d="M8.47267 22.539C8.40236 22.621 8.14455 23.1483 7.87502 23.6991C7.59377 24.3202 7.32424 24.7421 7.19533 24.7772C7.06642 24.8124 6.52736 24.9062 5.97658 24.9882C4.27736 25.2343 4.17189 25.5741 5.43752 26.8515L6.31642 27.7304L6.09377 28.9022C5.90627 29.9569 5.90627 30.0976 6.07033 30.2733C6.37502 30.6366 6.99611 30.5312 7.96877 29.9687L8.84767 29.4647L9.97267 30.0507C10.8399 30.496 11.168 30.6132 11.4024 30.5546C11.836 30.4491 11.8828 30.1327 11.6602 28.8437L11.4727 27.7538L12.2813 26.9218C12.7266 26.4647 13.125 25.996 13.1602 25.8905C13.1953 25.7851 13.125 25.5624 13.0078 25.4101C12.8203 25.164 12.6094 25.1054 11.6719 24.9765C11.0508 24.8827 10.5 24.789 10.4414 24.7538C10.3828 24.7069 10.0899 24.1679 9.79689 23.5351C9.30471 22.4804 9.24611 22.3983 8.92971 22.3983C8.74221 22.3983 8.53127 22.4687 8.47267 22.539ZM9.02346 25.0819C9.38674 25.8085 9.35158 25.7968 10.4649 25.9843L10.9219 26.0663L10.418 26.5702L9.9258 27.0741L9.99611 27.8358L10.0664 28.6093L9.48049 28.3046C8.82424 27.9765 8.48439 27.9999 7.71096 28.3866C7.46486 28.5155 7.25392 28.6093 7.23049 28.6093C7.20705 28.6093 7.24221 28.2694 7.31252 27.8476L7.41799 27.0741L6.91408 26.5585L6.41017 26.0429L6.86721 25.9726C7.74611 25.8202 7.96877 25.6796 8.29689 25.0116C8.46096 24.6718 8.6133 24.3905 8.63674 24.3905C8.64846 24.3905 8.82424 24.7069 9.02346 25.0819Z" fill="white" stroke="white"/>
<path d="M41.8711 30.0743C40.9102 30.5196 40.6875 30.8829 41.0859 31.3165C41.2617 31.5157 41.4141 31.5508 41.8359 31.504C42.5391 31.4337 43.4883 30.9649 43.6992 30.5899C43.8516 30.3087 43.8516 30.2501 43.6758 29.9688C43.3945 29.5469 42.9258 29.5821 41.8711 30.0743Z" fill="white" stroke="white"/>
<path d="M42.3281 32.3828C42.1289 32.582 42.1523 33.1328 42.375 33.3438C42.5156 33.4844 42.8203 33.5312 43.7109 33.5312C44.3437 33.5312 44.9531 33.4961 45.0586 33.4609C45.375 33.332 45.5039 32.8398 45.293 32.5234C45.1172 32.2539 45.0469 32.2422 43.793 32.2422C42.9141 32.2422 42.4219 32.2891 42.3281 32.3828Z" fill="white" stroke="white"/>
<path d="M41.0625 34.5392C40.7227 35.0548 40.9453 35.3946 41.8828 35.7814C42.9258 36.2032 43.4063 36.2149 43.6758 35.8048C43.9805 35.336 43.7109 34.9845 42.7383 34.5743C41.7188 34.1407 41.3203 34.1407 41.0625 34.5392Z" fill="white" stroke="white"/>
<path d="M26.0156 25.3399C23.0625 25.7735 20.4727 28.1289 19.7344 31.0703C19.4766 32.0664 19.4766 33.836 19.7227 34.8203C20.2383 36.7891 21.75 38.7227 23.5195 39.6602C27.3047 41.6524 32.0625 40.2813 33.9609 36.625C34.582 35.418 34.8047 34.4805 34.8047 32.9922C34.8047 30.3907 33.7383 28.1758 31.7812 26.7344C30.1758 25.5391 28.0664 25.0352 26.0156 25.3399ZM26.3672 26.6758C26.3672 26.711 26.0391 27.3907 25.6406 28.1875C25.125 29.2188 24.8437 29.6641 24.668 29.711C24.0703 29.8516 21.6562 30.1563 21.5977 30.0977C21.4805 29.9805 22.2422 28.8907 22.8281 28.3516C23.5312 27.6953 24.3398 27.2149 25.3125 26.8868C26.0742 26.6289 26.3672 26.5703 26.3672 26.6758ZM29.4141 26.9805C30.5625 27.3789 31.7344 28.3399 32.5195 29.5352C32.707 29.8047 32.8125 30.0508 32.7773 30.086C32.707 30.1563 29.8125 29.7696 29.6602 29.6641C29.5664 29.6055 28.125 26.8047 28.125 26.6758C28.125 26.5938 28.6172 26.711 29.4141 26.9805ZM28.125 29.5352C28.8633 30.9414 28.6992 30.836 30.75 31.1289L32.1445 31.3399L31.0078 32.4063C29.6953 33.625 29.7305 33.4961 30.0469 35.4297C30.1523 36.0625 30.2344 36.6485 30.2344 36.7422C30.2344 36.8477 29.8008 36.6836 28.9219 36.2149C28.1953 35.8399 27.4687 35.5235 27.3047 35.5235C27.1406 35.5235 26.4141 35.8399 25.6992 36.2149C24.668 36.7539 24.375 36.8594 24.375 36.7188C24.375 36.5078 24.6797 34.5274 24.7969 33.9532C24.8672 33.6368 24.7734 33.5196 23.6719 32.4766L22.4766 31.3516L23.9648 31.1641C25.1367 31.0235 25.5 30.9297 25.6992 30.7422C25.8398 30.6016 26.25 29.9102 26.6016 29.2071C27.1289 28.1289 27.2578 27.9414 27.3516 28.1172C27.4219 28.2227 27.7617 28.8672 28.125 29.5352ZM22.2539 33.0743L23.4609 34.1993L23.2734 35.2422C23.168 35.8164 23.0156 36.5782 22.9453 36.9297L22.8281 37.5743L22.3594 37.0469C21.7852 36.4141 21.2695 35.4063 21.0352 34.5039C20.8477 33.7891 20.7891 31.8438 20.9648 31.9141C21.0117 31.9258 21.5977 32.4532 22.2539 33.0743ZM33.5156 32.8633C33.5156 34.3868 33.0234 35.8164 32.1445 36.9063C31.9102 37.1875 31.6875 37.375 31.6406 37.3164C31.5937 37.2696 31.4414 36.543 31.2891 35.711L31.0312 34.211L32.1797 33.0508C32.8125 32.418 33.3633 31.9258 33.4219 31.961C33.4687 31.9961 33.5156 32.4063 33.5156 32.8633ZM28.7812 37.7149L30.2578 38.5118L29.6719 38.7696C28.8164 39.1446 27.7617 39.3203 26.8008 39.2383C25.957 39.168 24.4453 38.7696 24.3281 38.5821C24.2695 38.5 26.9766 36.9649 27.2109 36.9414C27.2695 36.9297 27.9609 37.2813 28.7812 37.7149Z" fill="white" stroke="white"/>
</svg>
