<svg width="41" height="41" viewBox="0 0 41 41" fill="none" xmlns="http://www.w3.org/2000/svg">
<path d="M20.1545 22.4124C21.7976 22.4124 23.1295 21.0805 23.1295 19.4374C23.1295 17.7944 21.7976 16.4624 20.1545 16.4624C18.5115 16.4624 17.1795 17.7944 17.1795 19.4374C17.1795 21.0805 18.5115 22.4124 20.1545 22.4124Z" fill="#00CCFF"/>
<path d="M11.8246 25.3526L11.1662 25.1843C6.27622 23.9493 3.47122 21.8493 3.47122 19.4309C3.47122 17.0109 6.27789 14.9126 11.1662 13.6776L11.8246 13.5109L12.0096 14.1626C12.5038 15.8688 13.137 17.5316 13.9029 19.1343L14.0446 19.4309L13.9029 19.7276C13.1362 21.3326 12.5012 22.9959 12.0096 24.7026L11.8246 25.3526V25.3526ZM10.8629 15.1943C7.14789 16.2409 4.86622 17.8376 4.86622 19.4309C4.86622 21.0209 7.14622 22.6193 10.8629 23.6643C11.3179 22.2176 11.8679 20.8026 12.5046 19.4309C11.8633 18.057 11.3148 16.6416 10.8629 15.1943V15.1943ZM28.4829 25.3526L28.2996 24.6993C27.804 22.9928 27.1702 21.3295 26.4046 19.7259L26.2629 19.4309L26.4046 19.1326C27.1712 17.5309 27.8029 15.8659 28.2996 14.1593L28.4829 13.5093L29.1412 13.6759C34.0329 14.9109 36.8362 17.0093 36.8362 19.4309C36.8362 21.8509 34.0312 23.9493 29.1412 25.1843L28.4829 25.3526V25.3526ZM27.7996 19.4309C28.4662 20.8743 29.0212 22.2943 29.4446 23.6643C33.1612 22.6193 35.4429 21.0209 35.4429 19.4309C35.4429 17.8376 33.1629 16.2426 29.4446 15.1943C28.99 16.6411 28.4405 18.0564 27.7996 19.4309V19.4309Z" fill="#00CCFF"/>
<path d="M10.8529 15.1873L10.6695 14.5373C9.29286 9.69064 9.70953 6.21897 11.8145 5.00897C13.8729 3.8173 17.1845 5.22564 20.6529 8.78397L21.1262 9.27064L20.6529 9.75564C19.421 11.0368 18.2951 12.4157 17.2862 13.879L17.0979 14.149L16.7712 14.1756C14.9972 14.315 13.2375 14.5987 11.5095 15.024L10.8529 15.1873V15.1873ZM13.4895 5.9723C13.1162 5.9723 12.7862 6.05397 12.5079 6.21397C11.1279 7.00897 10.8845 9.7773 11.8345 13.514C13.3195 13.1856 14.8179 12.9506 16.3279 12.819C17.2021 11.5791 18.1557 10.3971 19.1829 9.28064C17.0112 7.16897 14.9612 5.9723 13.4895 5.9723V5.9723ZM26.8179 34.279C24.8379 34.279 22.2945 32.7856 19.6545 30.0756L19.1829 29.5906L19.6545 29.1073C20.8866 27.8241 22.013 26.4435 23.0229 24.979L23.2095 24.7123L23.5329 24.6806C25.3075 24.5438 27.0679 24.2612 28.7962 23.8356L29.4545 23.669L29.6395 24.3206C31.0095 29.164 30.5945 32.6406 28.4929 33.8506C27.9826 34.1399 27.4044 34.2877 26.8179 34.279V34.279ZM21.1262 29.579C23.2962 31.6906 25.3479 32.889 26.8179 32.889C27.1929 32.889 27.5229 32.8056 27.7995 32.6473C29.1812 31.8506 29.4262 29.0773 28.4729 25.3406C26.9895 25.6706 25.4895 25.9073 23.9762 26.039C23.1057 27.2808 22.1536 28.4634 21.1262 29.579V29.579Z" fill="#00CCFF"/>
<path d="M29.4545 15.1874L28.7962 15.0224C27.068 14.5958 25.3076 14.312 23.5329 14.1741L23.2095 14.1457L23.0229 13.8757C22.0145 12.4117 20.8879 11.0326 19.6545 9.75238L19.1829 9.26738L19.6545 8.78405C23.1212 5.22738 26.4312 3.81905 28.4929 5.00905C30.5962 6.22072 31.0145 9.69238 29.6395 14.5374L29.4545 15.1874ZM23.9762 12.8191C25.5662 12.9607 27.0729 13.1991 28.4729 13.5141C29.4245 9.77738 29.1812 7.00905 27.7995 6.21238C26.4262 5.41738 23.8412 6.63405 21.1262 9.28072C22.1529 10.3974 23.1062 11.5774 23.9762 12.8191ZM13.4895 34.279C12.9031 34.2874 12.325 34.1396 11.8145 33.8507C9.70954 32.6407 9.29288 29.1657 10.6679 24.3207L10.8479 23.6691L11.5062 23.8357C13.1129 24.2407 14.8829 24.5257 16.7695 24.6807L17.0929 24.7124L17.2812 24.9791C18.2879 26.4424 19.4145 27.8241 20.6479 29.1074L21.1212 29.5907L20.6479 30.0757C18.0095 32.7874 15.4662 34.279 13.4895 34.279V34.279ZM11.8345 25.3424C10.8845 29.0791 11.1279 31.8524 12.5079 32.6491C13.8829 33.4324 16.4595 32.2241 19.1829 29.5791C18.1561 28.4622 17.2025 27.2803 16.3279 26.0407C14.8164 25.907 13.3153 25.6738 11.8345 25.3424V25.3424Z" fill="#00CCFF"/>
<path d="M20.1545 26.2177C19.0095 26.2177 17.8345 26.1693 16.6545 26.071L16.3279 26.0427L16.1395 25.7727C15.4741 24.8158 14.8481 23.8322 14.2629 22.8243C13.682 21.8137 13.1421 20.7801 12.6445 19.726L12.5045 19.431L12.6445 19.1327C13.1429 18.0793 13.6812 17.046 14.2629 16.036C14.8412 15.0427 15.4729 14.0493 16.1395 13.086L16.3279 12.8193L16.6545 12.7893C18.9827 12.5943 21.3231 12.5943 23.6512 12.7893L23.9745 12.821L24.1629 13.0877C25.4959 15.0022 26.6666 17.0248 27.6629 19.1343L27.8012 19.4327L27.6629 19.7277C26.6694 21.8386 25.4985 23.8614 24.1629 25.7743L23.9745 26.0443L23.6512 26.0727C22.4745 26.1677 21.2979 26.2177 20.1545 26.2177V26.2177ZM17.0979 24.711C19.1562 24.866 21.1529 24.866 23.2095 24.711C24.3577 23.0297 25.3783 21.2647 26.2629 19.431C25.3815 17.5956 24.3607 15.8304 23.2095 14.151C21.1753 13.9943 19.1321 13.9943 17.0979 14.151C15.9458 15.8298 14.925 17.5951 14.0445 19.431C14.931 21.2637 15.9516 23.0285 17.0979 24.711V24.711Z" fill="#00CCFF"/>
</svg>
