<svg width="14" height="13" viewBox="0 0 14 13" fill="none" xmlns="http://www.w3.org/2000/svg">
<path d="M12.6591 5.89683L1.32573 0.563494C1.21162 0.509504 1.08452 0.489058 0.95923 0.504539C0.833945 0.520019 0.715638 0.570788 0.6181 0.650928C0.520562 0.731069 0.44781 0.83728 0.408322 0.957183C0.368833 1.07709 0.364236 1.20574 0.395066 1.32816L1.68773 6.50016L0.395066 11.6722C0.363948 11.7946 0.368344 11.9234 0.40774 12.0435C0.447136 12.1635 0.519904 12.2699 0.61753 12.3501C0.715156 12.4303 0.833605 12.4811 0.959021 12.4964C1.08444 12.5118 1.21163 12.4911 1.32573 12.4368L12.6591 7.10349C12.7736 7.04966 12.8704 6.96433 12.9383 6.85749C13.0061 6.75065 13.0421 6.62671 13.0421 6.50016C13.0421 6.37361 13.0061 6.24967 12.9383 6.14283C12.8704 6.03599 12.7736 5.95066 12.6591 5.89683V5.89683ZM2.02907 10.6315L2.5884 8.39349L6.37507 6.50016L2.5884 4.60683L2.02907 2.36883L10.8091 6.50016L2.02907 10.6315Z" fill="white"/>
</svg>
